<?xml version="1.0" encoding="UTF-8"?>
<svg xmlns="http://www.w3.org/2000/svg" xmlns:xlink="http://www.w3.org/1999/xlink" viewBox="0 0 28 28" width="28px" height="28px">
<g id="surface79432257">
<path style=" stroke:none;fill-rule:nonzero;fill:rgb(100%,100%,100%);fill-opacity:1;" d="M 14 5.214844 C 13.210938 5.214844 12.5 5.625 12.105469 6.308594 L 4.253906 19.90625 C 3.859375 20.589844 3.859375 21.410156 4.253906 22.09375 C 4.652344 22.777344 5.359375 23.1875 6.148438 23.1875 L 21.851562 23.1875 C 22.640625 23.1875 23.347656 22.777344 23.746094 22.09375 C 24.140625 21.410156 24.140625 20.589844 23.746094 19.90625 L 15.894531 6.308594 C 15.5 5.625 14.789062 5.214844 14 5.214844 Z M 14 6.964844 C 14.074219 6.964844 14.265625 6.988281 14.378906 7.183594 L 22.230469 20.78125 C 22.34375 20.980469 22.269531 21.152344 22.230469 21.21875 C 22.191406 21.285156 22.078125 21.4375 21.851562 21.4375 L 6.148438 21.4375 C 5.921875 21.4375 5.808594 21.285156 5.769531 21.21875 C 5.730469 21.152344 5.65625 20.980469 5.769531 20.78125 L 13.621094 7.183594 C 13.734375 6.988281 13.925781 6.964844 14 6.964844 Z M 13.992188 10.058594 C 13.691406 10.058594 13.445312 10.152344 13.253906 10.335938 C 13.066406 10.523438 12.976562 10.753906 12.984375 11.03125 L 13.125 16.214844 C 13.140625 16.792969 13.433594 17.085938 14.007812 17.085938 C 14.5625 17.085938 14.84375 16.792969 14.851562 16.214844 L 15.015625 11.042969 C 15.023438 10.765625 14.929688 10.53125 14.730469 10.34375 C 14.535156 10.152344 14.289062 10.058594 13.992188 10.058594 Z M 14 18.238281 C 13.328125 18.238281 12.902344 18.808594 12.902344 19.289062 C 12.902344 19.769531 13.3125 20.339844 14 20.339844 C 14.6875 20.339844 15.097656 19.800781 15.097656 19.289062 C 15.097656 18.777344 14.671875 18.238281 14 18.238281 Z M 14 18.238281 "/>
</g>
</svg>
