<?xml version="1.0" encoding="UTF-8"?>
<svg xmlns="http://www.w3.org/2000/svg" xmlns:xlink="http://www.w3.org/1999/xlink" viewBox="0 0 28 28" width="28px" height="28px">
<g id="surface79671233">
<path style=" stroke:none;fill-rule:nonzero;fill:rgb(100%,100%,100%);fill-opacity:1;" d="M 14 4.375 C 8.683594 4.375 4.375 8.683594 4.375 14 C 4.375 19.316406 8.683594 23.625 14 23.625 C 19.316406 23.625 23.625 19.316406 23.625 14 C 23.625 8.683594 19.316406 4.375 14 4.375 Z M 14 6.125 C 18.347656 6.125 21.875 9.652344 21.875 14 C 21.875 18.347656 18.347656 21.875 14 21.875 C 9.652344 21.875 6.125 18.347656 6.125 14 C 6.125 9.652344 9.652344 6.125 14 6.125 Z M 14 9.1875 C 13.273438 9.1875 12.6875 9.773438 12.6875 10.5 C 12.6875 11.226562 13.273438 11.8125 14 11.8125 C 14.726562 11.8125 15.3125 11.226562 15.3125 10.5 C 15.3125 9.773438 14.726562 9.1875 14 9.1875 Z M 14 13.125 C 13.515625 13.125 13.125 13.515625 13.125 14 L 13.125 18.375 C 13.125 18.859375 13.515625 19.25 14 19.25 C 14.484375 19.25 14.875 18.859375 14.875 18.375 L 14.875 14 C 14.875 13.515625 14.484375 13.125 14 13.125 Z M 14 13.125 "/>
</g>
</svg>
