<?xml version="1.0" encoding="UTF-8"?>
<svg xmlns="http://www.w3.org/2000/svg" xmlns:xlink="http://www.w3.org/1999/xlink" viewBox="0 0 28 28" width="28px" height="28px">
<g id="surface79451713">
<path style=" stroke:none;fill-rule:nonzero;fill:rgb(100%,100%,100%);fill-opacity:1;" d="M 22.703125 15.355469 C 22.628906 15.773438 22.449219 16.152344 22.203125 16.476562 C 22.667969 17.058594 22.851562 17.796875 22.671875 18.554688 C 22.550781 19.082031 22.265625 19.539062 21.886719 19.886719 C 22.15625 20.265625 22.3125 20.71875 22.3125 21.203125 C 22.3125 22.542969 21.121094 23.59375 19.597656 23.59375 L 13.121094 23.613281 C 11.023438 23.613281 9.042969 22.796875 7.558594 21.316406 C 6.070312 19.828125 5.25 17.851562 5.25 15.75 C 5.25 11.828125 6.660156 10.425781 7.59375 9.5 L 7.695312 9.398438 C 7.988281 9.101562 8.527344 8.707031 9.210938 8.203125 C 10.59375 7.179688 12.914062 5.464844 13.339844 4.308594 C 13.683594 3.382812 14.109375 2.230469 15.75 2.230469 C 16.480469 2.230469 17.152344 2.683594 17.550781 3.445312 C 17.929688 4.175781 18.496094 6.132812 16.472656 9.625 L 19.757812 9.625 C 21.167969 9.625 22.3125 10.699219 22.3125 12.015625 C 22.3125 12.4375 22.191406 12.832031 21.984375 13.175781 C 22.574219 13.746094 22.851562 14.519531 22.703125 15.355469 Z M 19.597656 21.84375 C 20.121094 21.84375 20.5625 21.550781 20.5625 21.203125 C 20.5625 20.851562 20.203125 20.5625 19.757812 20.5625 L 17.9375 20.5625 C 17.453125 20.5625 17.0625 20.171875 17.0625 19.6875 C 17.0625 19.203125 17.453125 18.8125 17.9375 18.8125 L 20.226562 18.8125 C 20.609375 18.8125 20.894531 18.472656 20.96875 18.15625 C 21.015625 17.949219 21 17.679688 20.71875 17.441406 C 20.558594 17.476562 20.394531 17.5 20.226562 17.5 L 17.9375 17.5 C 17.453125 17.5 17.0625 17.109375 17.0625 16.625 C 17.0625 16.140625 17.453125 15.75 17.9375 15.75 L 20.226562 15.75 C 20.617188 15.75 20.917969 15.394531 20.980469 15.050781 C 21.046875 14.667969 20.820312 14.417969 20.542969 14.261719 C 20.25 14.355469 19.933594 14.40625 19.597656 14.40625 L 17.945312 14.4375 C 17.46875 14.4375 17.070312 14.054688 17.0625 13.578125 C 17.054688 13.09375 17.4375 12.695312 17.921875 12.6875 L 19.582031 12.65625 C 20.121094 12.65625 20.5625 12.363281 20.5625 12.015625 C 20.5625 11.664062 20.203125 11.375 19.757812 11.375 L 14.875 11.375 C 14.550781 11.375 14.25 11.195312 14.097656 10.902344 C 13.949219 10.613281 13.972656 10.265625 14.15625 10 C 16.121094 7.1875 16.417969 5.234375 16.039062 4.339844 C 15.921875 4.058594 15.777344 3.984375 15.742188 3.976562 C 15.386719 3.976562 15.328125 3.976562 14.984375 4.917969 C 14.375 6.5625 11.992188 8.324219 10.25 9.609375 C 9.675781 10.035156 9.136719 10.433594 8.929688 10.636719 L 8.828125 10.738281 C 8.015625 11.550781 7 12.554688 7 15.75 C 7 17.386719 7.636719 18.921875 8.792969 20.078125 C 9.949219 21.230469 11.488281 21.863281 13.117188 21.863281 Z M 19.597656 21.84375 "/>
</g>
</svg>
