<?xml version="1.0" encoding="UTF-8"?>
<svg xmlns="http://www.w3.org/2000/svg" xmlns:xlink="http://www.w3.org/1999/xlink" viewBox="0 0 28 28" width="28px" height="28px">
<g id="surface79447169">
<path style=" stroke:none;fill-rule:nonzero;fill:rgb(100%,100%,100%);fill-opacity:1;" d="M 17.703125 16.027344 C 19.269531 17.59375 20.132812 19.679688 20.125 21.898438 C 20.121094 22.855469 19.332031 23.625 18.375 23.625 L 9.625 23.625 C 8.667969 23.625 7.878906 22.855469 7.875 21.898438 C 7.867188 19.679688 8.730469 17.597656 10.296875 16.027344 L 11.449219 14.875 C 11.683594 14.640625 11.8125 14.332031 11.8125 14 C 11.8125 13.667969 11.683594 13.359375 11.449219 13.125 L 10.261719 11.9375 C 8.722656 10.398438 7.875 8.351562 7.875 6.175781 C 7.875 5.164062 8.660156 4.375 9.621094 4.375 L 18.378906 4.375 C 19.339844 4.375 20.125 5.164062 20.125 6.132812 C 20.125 8.351562 19.277344 10.398438 17.738281 11.9375 L 16.550781 13.125 C 16.316406 13.359375 16.1875 13.667969 16.1875 14 C 16.1875 14.332031 16.316406 14.640625 16.550781 14.875 Z M 18.023438 21.121094 L 14.605469 17.859375 C 14.265625 17.535156 13.734375 17.535156 13.394531 17.859375 L 9.976562 21.121094 C 9.691406 21.394531 9.886719 21.875 10.28125 21.875 L 17.71875 21.875 C 18.113281 21.875 18.308594 21.394531 18.023438 21.121094 Z M 18.023438 21.121094 "/>
</g>
</svg>
