<svg width="28" height="28" viewBox="0 0 28 28" fill="none" xmlns="http://www.w3.org/2000/svg">
<path d="M3.02445 6.1448H25.1201C25.6925 6.1448 26.1638 5.68309 26.1638 5.11075C26.1638 4.53841 25.6925 4.0863 25.1201 4.0863H3.02445C2.45211 4.0863 2 4.53841 2 5.11075C2 5.68309 2.45211 6.1448 3.02445 6.1448ZM3.02445 12.2758H25.1201C25.6925 12.2758 26.1638 11.8216 26.1638 11.2493C26.1638 10.6769 25.6925 10.2152 25.1201 10.2152H3.02445C2.45211 10.2152 2 10.6769 2 11.2493C2 11.8216 2.45211 12.2758 3.02445 12.2758ZM16.8493 18.4144H25.1201C25.6925 18.4144 26.1638 17.9623 26.1638 17.3899C26.1638 16.8059 25.6925 16.3538 25.1201 16.3538H16.8493C16.2748 16.3538 15.8227 16.8059 15.8227 17.3899C15.8227 17.9623 16.2748 18.4144 16.8493 18.4144ZM16.8493 24.5529H25.1201C25.6925 24.5529 26.1638 24.1008 26.1638 23.5285C26.1638 22.9465 25.6925 22.4944 25.1201 22.4944H16.8493C16.2748 22.4944 15.8227 22.9465 15.8227 23.5285C15.8227 24.1008 16.2748 24.5529 16.8493 24.5529Z" fill="white"/>
<path d="M2.01172 16.5307V18.9767C2.01172 20.8306 3.22578 21.9134 5.07218 21.9134H8.22969V23.1195C8.22969 24.132 9.19531 24.51 9.97156 23.8807L13.314 21.188C13.8155 20.7919 13.8198 20.0881 13.314 19.6824L9.97156 17.0014C9.21664 16.403 8.22969 16.7715 8.22969 17.7563V18.9514H5.42069C5.12585 18.9514 4.97374 18.7779 4.97374 18.4927V16.5054C4.97374 15.5204 4.4014 14.8658 3.48687 14.8658C2.57445 14.8658 2.01172 15.495 2.01172 16.5307Z" fill="white"/>
</svg>
