<svg width="28" height="28" viewBox="0 0 28 28" fill="none" xmlns="http://www.w3.org/2000/svg">
<path d="M5.83789 11.4512C5.83789 14.958 8.20215 17.3662 12.1836 17.3662H17.7383L19.7686 17.2783L18.2393 18.5703L16.0068 20.75C15.8311 20.9258 15.7168 21.1367 15.7168 21.4268C15.7168 21.9805 16.0947 22.3848 16.6748 22.3848C16.9209 22.3848 17.1934 22.2705 17.3779 22.0771L22.4229 17.1113C22.625 16.918 22.7305 16.6543 22.7305 16.3906C22.7305 16.1182 22.625 15.8545 22.4229 15.6611L17.3779 10.7041C17.1934 10.5107 16.9209 10.3965 16.6748 10.3965C16.0947 10.3965 15.7168 10.8008 15.7168 11.3457C15.7168 11.6357 15.8311 11.8555 16.0068 12.0312L18.2393 14.2021L19.7686 15.5029L17.7383 15.4062H12.1396C9.32715 15.4062 7.77148 13.8066 7.77148 11.5215C7.77148 9.24512 9.32715 7.5752 12.1396 7.5752H14.1963C14.7852 7.5752 15.1895 7.13574 15.1895 6.59082C15.1895 6.05469 14.7764 5.61523 14.1963 5.61523H12.0693C8.14941 5.61523 5.83789 7.93555 5.83789 11.4512Z" fill="#F2F2F2"/>
</svg>
