<svg width="28" height="28" viewBox="0 0 28 28" fill="none" xmlns="http://www.w3.org/2000/svg">
<path d="M5.69434 13.6455C5.69434 13.9092 5.80859 14.1641 6.01074 14.3574L11.8027 20.1494C12.0137 20.3516 12.251 20.4482 12.4883 20.4482C13.042 20.4482 13.4375 20.0527 13.4375 19.5254C13.4375 19.2529 13.332 19.0156 13.1562 18.8486L11.1875 16.8535L8.58594 14.4805L10.6426 14.6035H21.3301C21.9014 14.6035 22.3057 14.208 22.3057 13.6455C22.3057 13.0742 21.9014 12.6875 21.3301 12.6875H10.6426L8.59473 12.8105L11.1875 10.4375L13.1562 8.44238C13.332 8.2666 13.4375 8.0293 13.4375 7.75684C13.4375 7.22949 13.042 6.84277 12.4883 6.84277C12.251 6.84277 12.0137 6.93066 11.7852 7.15039L6.01074 12.9336C5.80859 13.1182 5.69434 13.3818 5.69434 13.6455Z" fill="#F2F2F2"/>
</svg>
