<svg width="16" height="16" viewBox="0 0 16 16" fill="none" xmlns="http://www.w3.org/2000/svg">
<path d="M8 8C8.79565 8 9.55871 7.68393 10.1213 7.12132C10.6839 6.55871 11 5.79565 11 5C11 4.20435 10.6839 3.44129 10.1213 2.87868C9.55871 2.31607 8.79565 2 8 2C7.20435 2 6.44129 2.31607 5.87868 2.87868C5.31607 3.44129 5 4.20435 5 5C5 5.79565 5.31607 6.55871 5.87868 7.12132C6.44129 7.68393 7.20435 8 8 8V8ZM10 5C10 5.53043 9.78929 6.03914 9.41421 6.41421C9.03914 6.78929 8.53043 7 8 7C7.46957 7 6.96086 6.78929 6.58579 6.41421C6.21071 6.03914 6 5.53043 6 5C6 4.46957 6.21071 3.96086 6.58579 3.58579C6.96086 3.21071 7.46957 3 8 3C8.53043 3 9.03914 3.21071 9.41421 3.58579C9.78929 3.96086 10 4.46957 10 5V5ZM14 13C14 14 13 14 13 14H3C3 14 2 14 2 13C2 12 3 9 8 9C13 9 14 12 14 13ZM13 12.996C12.999 12.75 12.846 12.01 12.168 11.332C11.516 10.68 10.289 10 8 10C5.71 10 4.484 10.68 3.832 11.332C3.154 12.01 3.002 12.75 3 12.996H13Z" fill="#FFFBFB"/>
</svg>
