<svg xmlns="http://www.w3.org/2000/svg" viewBox="0 0 48 48"><linearGradient id="9rDVZPMopGMXq396Jz69ra" x1="31.04" x2="42.006" y1="-.842" y2="29.286" gradientTransform="matrix(1.0668 -.0668 -.0668 1.0668 -5.426 5.426)" gradientUnits="userSpaceOnUse"><stop offset=".002" stop-color="#427fdb"></stop><stop offset=".397" stop-color="#2668cb"></stop><stop offset=".763" stop-color="#1358bf"></stop><stop offset="1" stop-color="#0c52bb"></stop></linearGradient><path fill="url(#9rDVZPMopGMXq396Jz69ra)" d="M40.299,22.747c3.905,3.905,4.916,9.226,2.259,11.884s-7.978,1.647-11.884-2.259	s-4.916-9.226-2.259-11.884S36.394,18.842,40.299,22.747z"></path><linearGradient id="9rDVZPMopGMXq396Jz69rb" x1="37.042" x2="39.569" y1="647.5" y2="647.5" gradientTransform="translate(0 -618)" gradientUnits="userSpaceOnUse"><stop offset="0" stop-color="#c48f0c"></stop><stop offset=".251" stop-color="#d19b16"></stop><stop offset=".619" stop-color="#dca51f"></stop><stop offset="1" stop-color="#e0a922"></stop></linearGradient><path fill="url(#9rDVZPMopGMXq396Jz69rb)" d="M37.041,25h-1v9h1.3c1,0,1.8-0.7,2-1.7l0.7-3.8C40.341,26.7,38.941,25,37.041,25z"></path><linearGradient id="9rDVZPMopGMXq396Jz69rc" x1="-2989.041" x2="-2986.513" y1="647.5" y2="647.5" gradientTransform="matrix(-1 0 0 1 -2982 -618)" gradientUnits="userSpaceOnUse"><stop offset="0" stop-color="#c48f0c"></stop><stop offset=".251" stop-color="#d19b16"></stop><stop offset=".619" stop-color="#dca51f"></stop><stop offset="1" stop-color="#e0a922"></stop></linearGradient><path fill="url(#9rDVZPMopGMXq396Jz69rc)" d="M7.041,25h1v9h-1.3c-1,0-1.8-0.7-2-1.7l-0.7-3.8C3.741,26.7,5.141,25,7.041,25z"></path><radialGradient id="9rDVZPMopGMXq396Jz69rd" cx="22.041" cy="643.5" r="17.396" gradientTransform="translate(0 -618)" gradientUnits="userSpaceOnUse"><stop offset="0" stop-color="#ffcf54"></stop><stop offset=".261" stop-color="#fdcb4d"></stop><stop offset=".639" stop-color="#f7c13a"></stop><stop offset="1" stop-color="#f0b421"></stop></radialGradient><path fill="url(#9rDVZPMopGMXq396Jz69rd)" d="M22.041,6c-7.4,0-15,3-15,19c0,1.3,0,5.9,0,7.3c0,5.7,9,12.7,15,12.7s15-7,15-12.7	c0-1.4,0-6,0-7.3C37.041,9,29.441,6,22.041,6z"></path><circle cx="28.541" cy="26.5" r="1.5" fill="#3b3b3b"></circle><circle cx="15.541" cy="26.5" r="1.5" fill="#3b3b3b"></circle><linearGradient id="9rDVZPMopGMXq396Jz69re" x1="36.541" x2="36.541" y1="28.679" y2="21.622" gradientUnits="userSpaceOnUse"><stop offset="0" stop-color="#c26715"></stop><stop offset=".508" stop-color="#b85515"></stop><stop offset="1" stop-color="#ad3f16"></stop></linearGradient><path fill="url(#9rDVZPMopGMXq396Jz69re)" d="M37.041,29c0,0,0-4-2-7c1.5,0,3,0,3,0S38.041,26,37.041,29z"></path><linearGradient id="9rDVZPMopGMXq396Jz69rf" x1="7.541" x2="7.541" y1="28.679" y2="21.622" gradientUnits="userSpaceOnUse"><stop offset="0" stop-color="#c26715"></stop><stop offset=".508" stop-color="#b85515"></stop><stop offset="1" stop-color="#ad3f16"></stop></linearGradient><path fill="url(#9rDVZPMopGMXq396Jz69rf)" d="M7.041,29c0,0,0-4,2-7c-1.5,0-3,0-3,0S6.041,26,7.041,29z"></path><linearGradient id="9rDVZPMopGMXq396Jz69rg" x1="16.622" x2="29.261" y1="3.108" y2="37.833" gradientUnits="userSpaceOnUse"><stop offset=".002" stop-color="#427fdb"></stop><stop offset=".397" stop-color="#2668cb"></stop><stop offset=".763" stop-color="#1358bf"></stop><stop offset="1" stop-color="#0c52bb"></stop></linearGradient><path fill="url(#9rDVZPMopGMXq396Jz69rg)" d="M38.511,20.647l-0.795-7.257C37.054,7.465,32.289,3,26.627,3h-9.173	C11.792,3,7.027,7.465,6.365,13.39L5.57,20.647C5.414,22.046,6.292,23,7.629,23h28.824C37.789,23,38.667,22.046,38.511,20.647z M21.404,21.029h-8.727c-0.904,0-1.636-0.678-1.636-1.515S11.773,18,12.677,18h8.727c0.904,0,1.636,0.678,1.636,1.515	S22.308,21.029,21.404,21.029z"></path><linearGradient id="9rDVZPMopGMXq396Jz69rh" x1="22.041" x2="22.041" y1="20.831" y2="34.049" gradientUnits="userSpaceOnUse"><stop offset="0" stop-color="#6d6d6d"></stop><stop offset=".126" stop-color="#626262"></stop><stop offset=".886" stop-color="#464646"></stop><stop offset="1" stop-color="#454545"></stop></linearGradient><path fill="url(#9rDVZPMopGMXq396Jz69rh)" d="M33.041,25h-9h-1h-2h-1h-9c-0.552,0-1,0.448-1,1l0,0.785c0,2.611,2.4,4.943,5,5.191	c2.657,0.253,5.448-1.575,5.913-4.045C21.054,27.398,21.498,27,22.041,27h0c0.543,0,0.986,0.398,1.087,0.932	c0.466,2.47,3.256,4.298,5.913,4.045c2.6-0.248,5-2.58,5-5.191V26C34.041,25.448,33.593,25,33.041,25z"></path><radialGradient id="9rDVZPMopGMXq396Jz69ri" cx="21.997" cy="43.989" r="10.894" gradientUnits="userSpaceOnUse"><stop offset="0" stop-color="#c26715"></stop><stop offset=".508" stop-color="#b85515"></stop><stop offset="1" stop-color="#ad3f16"></stop></radialGradient><path fill="url(#9rDVZPMopGMXq396Jz69ri)" d="M26.851,43.85c-1.67,0.72-3.33,1.15-4.81,1.15s-3.14-0.43-4.81-1.15l0.15-0.9	c0.38-2.28,2.35-3.95,4.66-3.95s4.28,1.67,4.66,3.95L26.851,43.85z M21.791,35c-4.08,0-7.53,2.73-8.63,6.46	c0.57,0.43,1.16,0.82,1.76,1.19c0.63-3.22,3.47-5.65,6.87-5.65c3.49,0,6.39,2.57,6.91,5.92c0.62-0.36,1.23-0.74,1.81-1.16	C29.511,37.88,25.981,35,21.791,35z"></path></svg>
