<svg viewBox="1.533 3.788 500.308 492.43" width="500.308" height="492.43">
  <path d="M 479.264 3.794 C 473.442 3.93 467.912 6.326 463.879 10.46 L 251.687 219.318 L 39.492 10.46 C 35.341 6.254 29.636 3.879 23.678 3.879 C 6.707 3.883 -3.894 21.968 4.593 36.431 C 5.611 38.163 6.864 39.748 8.323 41.141 L 220.515 249.998 L 8.323 458.855 C -3.92 470.424 1.153 490.698 17.453 495.348 C 25.327 497.594 33.816 495.355 39.492 489.535 L 251.687 280.678 L 463.879 489.535 C 475.633 501.584 496.231 496.592 500.955 480.547 C 503.238 472.799 500.962 464.443 495.05 458.855 L 282.856 249.998 L 495.05 41.141 C 507.293 29.574 502.225 9.3 485.925 4.647 C 483.762 4.03 481.514 3.741 479.264 3.794 Z" style="fill: rgb(255, 255, 255);"></path>
</svg>
