<svg width="20" height="20" viewBox="0 0 20 20" fill="none" xmlns="http://www.w3.org/2000/svg">
<path d="M10.0001 1.66666C5.40508 1.66666 1.66675 5.405 1.66675 10C1.66675 14.595 5.40508 18.3333 10.0001 18.3333C14.5951 18.3333 18.3334 14.595 18.3334 10C18.3334 5.405 14.5951 1.66666 10.0001 1.66666ZM10.0001 16.6667C6.32425 16.6667 3.33341 13.6758 3.33341 10C3.33341 6.32416 6.32425 3.33333 10.0001 3.33333C13.6759 3.33333 16.6667 6.32416 16.6667 10C16.6667 13.6758 13.6759 16.6667 10.0001 16.6667Z" fill="white"/>
<path d="M10.8334 5.83334H9.16675V10.345L11.9109 13.0892L13.0892 11.9108L10.8334 9.655V5.83334Z" fill="white"/>
</svg>
