<svg width="30" height="30" viewBox="0 0 30 30" fill="none" xmlns="http://www.w3.org/2000/svg">
<path d="M10.4719 5.625L13.6781 8.82188L14.2219 9.375H26.25V24.375H3.75V5.625H10.4719ZM10.4719 3.75H3.75C3.25272 3.75 2.77581 3.94754 2.42417 4.29918C2.07254 4.65081 1.875 5.12772 1.875 5.625V24.375C1.875 24.8723 2.07254 25.3492 2.42417 25.7008C2.77581 26.0525 3.25272 26.25 3.75 26.25H26.25C26.7473 26.25 27.2242 26.0525 27.5758 25.7008C27.9275 25.3492 28.125 24.8723 28.125 24.375V9.375C28.125 8.87772 27.9275 8.40081 27.5758 8.04918C27.2242 7.69754 26.7473 7.5 26.25 7.5H15L11.8031 4.30313C11.6287 4.12766 11.4213 3.98844 11.1928 3.89351C10.9643 3.79858 10.7193 3.7498 10.4719 3.75V3.75Z" fill="white"/>
</svg>
