<?xml version="1.0" encoding="UTF-8"?>
<svg xmlns="http://www.w3.org/2000/svg" xmlns:xlink="http://www.w3.org/1999/xlink" viewBox="0 0 24 24" width="24px" height="24px">
<g id="surface88165820">
<path style=" stroke:none;fill-rule:nonzero;fill:rgb(100%,100%,100%);fill-opacity:1;" d="M 5 3 C 3.90625 3 3 3.90625 3 5 L 3 9 C 3 10.09375 3.90625 11 5 11 L 9 11 C 10.09375 11 11 10.09375 11 9 L 11 5 C 11 3.90625 10.09375 3 9 3 Z M 15 3 C 13.90625 3 13 3.90625 13 5 L 13 9 C 13 10.09375 13.90625 11 15 11 L 19 11 C 20.09375 11 21 10.09375 21 9 L 21 5 C 21 3.90625 20.09375 3 19 3 Z M 5 5 L 9 5 L 9 9 L 5 9 Z M 15 5 L 19 5 L 19 9 L 15 9 Z M 5 13 C 3.90625 13 3 13.90625 3 15 L 3 19 C 3 20.09375 3.90625 21 5 21 L 9 21 C 10.09375 21 11 20.09375 11 19 L 11 15 C 11 13.90625 10.09375 13 9 13 Z M 15 13 C 13.90625 13 13 13.90625 13 15 L 13 19 C 13 20.09375 13.90625 21 15 21 L 19 21 C 20.09375 21 21 20.09375 21 19 L 21 15 C 21 13.90625 20.09375 13 19 13 Z M 5 15 L 9 15 L 9 19 L 5 19 Z M 15 15 L 19 15 L 19 19 L 15 19 Z M 15 15 "/>
</g>
</svg>
