<svg width="30" height="30" viewBox="0 0 30 30" fill="none" xmlns="http://www.w3.org/2000/svg">
<g clip-path="url(#clip0_105_187)">
<g filter="url(#filter0_d_105_187)">
<path d="M6.25 27.5H23.75C24.413 27.5 25.0489 27.2366 25.5178 26.7678C25.9866 26.2989 26.25 25.6631 26.25 25V13.75C26.251 13.5855 26.2194 13.4224 26.1572 13.2701C26.095 13.1178 26.0034 12.9793 25.8875 12.8625L15.8875 2.86251C15.6533 2.6297 15.3365 2.49902 15.0063 2.49902C14.676 2.49902 14.3592 2.6297 14.125 2.86251L4.125 12.8625C4.00689 12.9783 3.91293 13.1163 3.84856 13.2687C3.78419 13.421 3.75069 13.5846 3.75 13.75V25C3.75 25.6631 4.01339 26.2989 4.48223 26.7678C4.95107 27.2366 5.58696 27.5 6.25 27.5ZM12.5 25V18.75H17.5V25H12.5ZM6.25 14.2625L15 5.51251L23.75 14.2625V25H20V18.75C20 18.087 19.7366 17.4511 19.2678 16.9822C18.7989 16.5134 18.163 16.25 17.5 16.25H12.5C11.837 16.25 11.2011 16.5134 10.7322 16.9822C10.2634 17.4511 10 18.087 10 18.75V25H6.25V14.2625Z" fill="white"/>
</g>
</g>
<defs>
<filter id="filter0_d_105_187" x="-0.25" y="2.49902" width="30.5" height="33.001" filterUnits="userSpaceOnUse" color-interpolation-filters="sRGB">
<feFlood flood-opacity="0" result="BackgroundImageFix"/>
<feColorMatrix in="SourceAlpha" type="matrix" values="0 0 0 0 0 0 0 0 0 0 0 0 0 0 0 0 0 0 127 0" result="hardAlpha"/>
<feOffset dy="4"/>
<feGaussianBlur stdDeviation="2"/>
<feComposite in2="hardAlpha" operator="out"/>
<feColorMatrix type="matrix" values="0 0 0 0 0 0 0 0 0 0 0 0 0 0 0 0 0 0 0.25 0"/>
<feBlend mode="normal" in2="BackgroundImageFix" result="effect1_dropShadow_105_187"/>
<feBlend mode="normal" in="SourceGraphic" in2="effect1_dropShadow_105_187" result="shape"/>
</filter>
<clipPath id="clip0_105_187">
<rect width="30" height="30" rx="10" fill="white"/>
</clipPath>
</defs>
</svg>
