<svg width="28" height="28" viewBox="0 0 28 28" fill="none" xmlns="http://www.w3.org/2000/svg">
<path d="M3.25098 13.2146C3.25098 13.6716 3.60254 14.0671 4.16504 14.0671C4.4375 14.0671 4.68359 13.9177 4.90332 13.7419L5.90527 12.8982V21.072C5.90527 22.3728 6.6875 23.1462 8.03223 23.1462H19.9238C21.2598 23.1462 22.0508 22.3728 22.0508 21.072V12.8542L23.1055 13.7419C23.3164 13.9177 23.5625 14.0671 23.835 14.0671C24.3535 14.0671 24.749 13.7419 24.749 13.2322C24.749 12.9333 24.6348 12.696 24.4062 12.5027L22.0508 10.5164V6.77222C22.0508 6.37671 21.7959 6.13062 21.4004 6.13062H20.1875C19.8008 6.13062 19.5371 6.37671 19.5371 6.77222V8.40698L15.2568 4.81226C14.4922 4.17065 13.5254 4.17065 12.7607 4.81226L3.60254 12.5027C3.36523 12.696 3.25098 12.9597 3.25098 13.2146ZM16.5312 15.6404C16.5312 15.2273 16.2676 14.9636 15.8545 14.9636H12.1631C11.75 14.9636 11.4775 15.2273 11.4775 15.6404V21.3972H8.49805C7.95312 21.3972 7.6543 21.0896 7.6543 20.5359V11.4304L13.6221 6.42065C13.8682 6.20972 14.1494 6.20972 14.3955 6.42065L20.293 11.3777V20.5359C20.293 21.0896 19.9941 21.3972 19.4492 21.3972H16.5312V15.6404Z" fill="#F2F2F2"/>
</svg>
