<svg width="30" height="30" viewBox="0 0 30 30" fill="none" xmlns="http://www.w3.org/2000/svg">
<path d="M15 1.875C7.75195 1.875 1.875 7.75195 1.875 15C1.875 22.248 7.75195 28.125 15 28.125C22.248 28.125 28.125 22.248 28.125 15C28.125 7.75195 22.248 1.875 15 1.875ZM15 25.8984C8.98242 25.8984 4.10156 21.0176 4.10156 15C4.10156 8.98242 8.98242 4.10156 15 4.10156C21.0176 4.10156 25.8984 8.98242 25.8984 15C25.8984 21.0176 21.0176 25.8984 15 25.8984Z" fill="white"/>
<path d="M13.5938 9.84375C13.5938 10.2167 13.7419 10.5744 14.0056 10.8381C14.2694 11.1018 14.627 11.25 15 11.25C15.373 11.25 15.7306 11.1018 15.9944 10.8381C16.2581 10.5744 16.4062 10.2167 16.4062 9.84375C16.4062 9.47079 16.2581 9.1131 15.9944 8.84938C15.7306 8.58566 15.373 8.4375 15 8.4375C14.627 8.4375 14.2694 8.58566 14.0056 8.84938C13.7419 9.1131 13.5938 9.47079 13.5938 9.84375V9.84375ZM15.7031 13.125H14.2969C14.168 13.125 14.0625 13.2305 14.0625 13.3594V21.3281C14.0625 21.457 14.168 21.5625 14.2969 21.5625H15.7031C15.832 21.5625 15.9375 21.457 15.9375 21.3281V13.3594C15.9375 13.2305 15.832 13.125 15.7031 13.125Z" fill="white"/>
</svg>
