<svg width="30" height="32" viewBox="0 0 30 32" fill="none" xmlns="http://www.w3.org/2000/svg">
<path d="M1.94531 11.4453C0.664062 9.58594 0.0234375 6.9375 0.0234375 3.5V0.101562H9.25781L26.6953 19.2031C27.6797 20.2969 28.3359 21.2188 28.6641 21.9688C28.9922 22.7188 29.2344 23.4062 29.3906 24.0312C29.7344 25.2812 29.9062 26.8203 29.9062 28.6484V32H20.9297L2.01562 11.4453H1.94531ZM19.7578 10.1094C19.7578 5.8125 20.4219 3.01562 21.75 1.71875C22.4531 1.03125 23.3672 0.59375 24.4922 0.40625C25.6328 0.203125 27.0156 0.101562 28.6406 0.101562H29.9062V3.80469C29.9062 7.13281 29.0312 9.35938 27.2812 10.4844C26.0312 11.2969 23.9297 11.7031 20.9766 11.7031H19.7578V10.1094ZM0.0234375 28.3438C0.0234375 25.0156 0.898438 22.7812 2.64844 21.6406C3.89844 20.8438 6 20.4453 8.95312 20.4453H10.1719V22.0391C10.1719 26.3828 9.50781 29.1719 8.17969 30.4062C7.27344 31.25 5.95312 31.75 4.21875 31.9062C3.34375 31.9688 2.36719 32 1.28906 32H0.0234375V28.3438Z" fill="#4AD168"/>
</svg>
