<svg xmlns="http://www.w3.org/2000/svg" width="375" viewBox="0 0 375 375" height="375" version="1.0"><defs><clipPath id="a"><path d="M 73.445312 66 L 301 66 L 301 308.839844 L 73.445312 308.839844 Z M 73.445312 66"/></clipPath></defs><path fill="#FFF" d="M 187.5 0 C 83.945312 0 0 83.945312 0 187.5 C 0 291.054688 83.945312 375 187.5 375 C 291.054688 375 375 291.054688 375 187.5 C 375 83.945312 291.054688 0 187.5 0 Z M 187.5 0"/><g clip-path="url(#a)"><path fill="#4AD168" d="M 88.226562 152.753906 C 78.492188 138.632812 73.621094 118.523438 73.621094 92.417969 L 73.621094 66.613281 L 143.804688 66.613281 L 276.328125 211.664062 C 283.808594 219.96875 288.796875 226.96875 291.289062 232.664062 C 293.785156 238.359375 295.625 243.578125 296.8125 248.324219 C 299.425781 257.816406 300.730469 269.503906 300.730469 283.386719 L 300.730469 308.835938 L 232.507812 308.835938 L 88.761719 152.753906 Z M 223.601562 142.609375 C 223.601562 109.980469 228.648438 88.742188 238.742188 78.894531 C 244.085938 73.671875 251.035156 70.351562 259.585938 68.925781 C 268.253906 67.382812 278.761719 66.613281 291.113281 66.613281 L 300.730469 66.613281 L 300.730469 94.734375 C 300.730469 120.003906 294.082031 136.914062 280.78125 145.457031 C 271.28125 151.625 255.308594 154.710938 232.867188 154.710938 L 223.601562 154.710938 Z M 73.621094 281.074219 C 73.621094 255.800781 80.273438 238.832031 93.570312 230.171875 C 103.070312 224.121094 119.042969 221.09375 141.488281 221.09375 L 150.75 221.09375 L 150.75 233.199219 C 150.75 266.183594 145.703125 287.363281 135.609375 296.734375 C 128.722656 303.140625 118.6875 306.9375 105.507812 308.125 C 98.855469 308.601562 91.433594 308.835938 83.242188 308.835938 L 73.621094 308.835938 Z M 73.621094 281.074219"/></g></svg>