<svg width="60" height="50" viewBox="0 0 60 50" fill="none" xmlns="http://www.w3.org/2000/svg">
<path d="M57.6854 3.09975C56.5653 1.69314 54.4815 0 50.7566 0C46.146 0 40.2851 3.0737 35.1276 8.20522C34.3722 8.93457 33.6949 9.66392 33.0437 10.4193V5.20966C33.0437 4.38065 32.7144 3.58559 32.1282 2.99939C31.542 2.41319 30.7469 2.08386 29.9179 2.08386C29.0889 2.08386 28.2938 2.41319 27.7076 2.99939C27.1214 3.58559 26.7921 4.38065 26.7921 5.20966V10.4193C26.1409 9.66392 25.4636 8.93457 24.7082 8.20522C19.5507 3.0737 13.6898 0 9.07926 0C5.35435 0 3.27048 1.69314 2.15041 3.09975C-1.28797 7.50191 -0.0116033 15.082 1.88992 22.636C3.32258 28.4187 6.31814 31.1538 9.13135 32.4041C8.40766 34.0087 8.03468 35.7493 8.03733 37.5096C8.03992 40.0481 8.81518 42.5258 10.26 44.6131C11.7049 46.7004 13.7509 48.2984 16.1259 49.1947C18.501 50.091 21.0927 50.2432 23.5563 49.6308C26.0199 49.0185 28.2388 47.6708 29.9179 45.7669C31.8971 48.0002 34.6097 49.4521 37.5658 49.8601C40.5219 50.2681 43.5265 49.6054 46.0366 47.9918C48.5468 46.3781 50.3971 43.9198 51.2531 41.0611C52.1092 38.2024 51.9146 35.1318 50.7045 32.4041C53.5177 31.1538 56.5132 28.4187 57.9459 22.636C59.8474 15.082 61.1238 7.50191 57.6854 3.09975V3.09975ZM20.5405 43.7612C18.9172 43.8013 17.3419 43.2082 16.1482 42.1074C14.9544 41.0066 14.2358 39.4846 14.1444 37.8633C14.053 36.2421 14.596 34.6489 15.6585 33.4209C16.721 32.1929 18.2197 31.4266 19.8372 31.284C20.2452 31.2419 20.6408 31.1192 21.0011 30.9231C21.3613 30.727 21.6791 30.4613 21.9359 30.1415C22.1927 29.8217 22.3835 29.4541 22.4972 29.06C22.6109 28.6659 22.6453 28.2531 22.5983 27.8456C22.5066 27.0244 22.0934 26.2728 21.449 25.7554C20.8047 25.238 19.9817 24.9968 19.16 25.0845C17.12 25.2999 15.1671 26.0255 13.4814 27.1944C11.4497 27.0121 9.10531 25.7097 7.93313 21.1252C6.0316 13.4409 5.74507 8.67409 7.09959 6.9549C7.25588 6.74651 7.62055 6.25159 9.07926 6.25159C11.9446 6.25159 16.477 8.83038 20.3061 12.6334C24.1352 16.4365 26.7921 20.9949 26.7921 23.9644V37.5096C26.7853 39.1655 26.1244 40.7516 24.9535 41.9225C23.7826 43.0935 22.1964 43.7543 20.5405 43.7612ZM51.9027 21.1252C50.7305 25.7097 48.3862 27.0121 46.3544 27.1944C44.6687 26.0255 42.7158 25.2999 40.6759 25.0845C40.2538 25.0083 39.8206 25.0198 39.4032 25.1182C38.9858 25.2166 38.5932 25.3999 38.2496 25.6566C37.9061 25.9133 37.619 26.2379 37.4063 26.6103C37.1936 26.9827 37.0598 27.3948 37.0133 27.8212C36.9667 28.2475 37.0084 28.6788 37.1356 29.0883C37.2629 29.4978 37.4731 29.8768 37.7531 30.2016C38.0331 30.5264 38.377 30.7901 38.7633 30.9763C39.1496 31.1626 39.5701 31.2673 39.9986 31.284C41.1968 31.4197 42.3302 31.899 43.2622 32.6642C44.1942 33.4294 44.885 34.4478 45.2514 35.5966C45.6177 36.7455 45.644 37.9758 45.327 39.1393C45.01 40.3027 44.3633 41.3497 43.4648 42.154C42.5663 42.9582 41.4544 43.4855 40.2631 43.6722C39.0718 43.8588 37.8519 43.697 36.7504 43.2061C35.649 42.7152 34.713 41.9163 34.0553 40.9055C33.3977 39.8948 33.0463 38.7154 33.0437 37.5096V23.9644C33.0437 20.9949 35.5964 16.5407 39.5297 12.6334C43.463 8.72618 47.8912 6.25159 50.7566 6.25159C52.2153 6.25159 52.5799 6.74651 52.7362 6.9549C54.0907 8.67409 53.8042 13.4409 51.9027 21.1252Z" fill="white"/>
</svg>
