<svg xmlns="http://www.w3.org/2000/svg" viewBox="0 0 48 48"><circle cx="8" cy="3" r="2" fill="#50e6ff"></circle><path fill="#50e6ff" d="M39,12c-0.083,0-0.167-0.01-0.25-0.031l-31-8C7.215,3.83,6.894,3.285,7.032,2.75	S7.714,1.894,8.25,2.031l31,8c0.535,0.139,0.856,0.684,0.718,1.219C39.852,11.701,39.446,12,39,12z"></path><path fill="#0078d4" d="M42,10h-7v30h7c1.105,0,2-0.895,2-2V12C44,10.895,43.105,10,42,10z"></path><path fill="#199be2" d="M35,10H6c-1.105,0-2,0.895-2,2v26c0,1.105,0.895,2,2,2h29V10z"></path><radialGradient id="~~qg2HuBG5nUKPwm5_K0xa" cx="39.5" cy="35" r="4" gradientUnits="userSpaceOnUse"><stop offset="0"></stop><stop offset=".1" stop-opacity=".9"></stop><stop offset="1" stop-opacity="0"></stop></radialGradient><circle cx="39.5" cy="35" r="4" fill="url(#~~qg2HuBG5nUKPwm5_K0xa)"></circle><circle cx="39.5" cy="34.5" r="2.5" fill="#fff"></circle><radialGradient id="~~qg2HuBG5nUKPwm5_K0xb" cx="39.5" cy="16" r="3" gradientUnits="userSpaceOnUse"><stop offset="0"></stop><stop offset=".1" stop-opacity=".9"></stop><stop offset="1" stop-opacity="0"></stop></radialGradient><circle cx="39.5" cy="16" r="3" fill="url(#~~qg2HuBG5nUKPwm5_K0xb)"></circle><circle cx="39.5" cy="15.5" r="1.5" fill="#50e6ff"></circle><radialGradient id="~~qg2HuBG5nUKPwm5_K0xc" cx="39.5" cy="22" r="3" gradientUnits="userSpaceOnUse"><stop offset="0"></stop><stop offset=".1" stop-opacity=".9"></stop><stop offset="1" stop-opacity="0"></stop></radialGradient><circle cx="39.5" cy="22" r="3" fill="url(#~~qg2HuBG5nUKPwm5_K0xc)"></circle><circle cx="39.5" cy="21.5" r="1.5" fill="#50e6ff"></circle><circle cx="19" cy="23" r="1" fill="#184f85"></circle><circle cx="22" cy="17" r="1" fill="#184f85"></circle><circle cx="22" cy="29" r="1" fill="#184f85"></circle><circle cx="19" cy="19" r="1" fill="#184f85"></circle><circle cx="19" cy="31" r="1" fill="#184f85"></circle><circle cx="19" cy="27" r="1" fill="#184f85"></circle><circle cx="25" cy="23" r="1" fill="#184f85"></circle><circle cx="25" cy="19" r="1" fill="#184f85"></circle><circle cx="25" cy="27" r="1" fill="#184f85"></circle><circle cx="22" cy="21" r="1" fill="#184f85"></circle><circle cx="22" cy="25" r="1" fill="#184f85"></circle><circle cx="28" cy="21" r="1" fill="#184f85"></circle><circle cx="28" cy="25" r="1" fill="#184f85"></circle><circle cx="16" cy="29" r="1" fill="#184f85"></circle><circle cx="16" cy="17" r="1" fill="#184f85"></circle><circle cx="13" cy="23" r="1" fill="#184f85"></circle><circle cx="13" cy="27" r="1" fill="#184f85"></circle><circle cx="13" cy="19" r="1" fill="#184f85"></circle><circle cx="16" cy="25" r="1" fill="#184f85"></circle><circle cx="16" cy="21" r="1" fill="#184f85"></circle><circle cx="10" cy="25" r="1" fill="#184f85"></circle><circle cx="22" cy="33" r="1" fill="#184f85"></circle><circle cx="25" cy="31" r="1" fill="#184f85"></circle><circle cx="28" cy="29" r="1" fill="#184f85"></circle><circle cx="16" cy="33" r="1" fill="#184f85"></circle><circle cx="13" cy="31" r="1" fill="#184f85"></circle><circle cx="10" cy="29" r="1" fill="#184f85"></circle><circle cx="10" cy="21" r="1" fill="#184f85"></circle></svg>
