<svg width="36" height="36" viewBox="0 0 36 36" fill="none" xmlns="http://www.w3.org/2000/svg">
<path d="M32 6H4C3.46957 6 2.96086 6.21071 2.58579 6.58579C2.21071 6.96086 2 7.46957 2 8V28C2 28.5304 2.21071 29.0391 2.58579 29.4142C2.96086 29.7893 3.46957 30 4 30H32C32.5304 30 33.0391 29.7893 33.4142 29.4142C33.7893 29.0391 34 28.5304 34 28V8C34 7.46957 33.7893 6.96086 33.4142 6.58579C33.0391 6.21071 32.5304 6 32 6V6ZM4 28V8H32V28H4Z" fill="white"/>
<path d="M13.3301 13.35C12.4365 13.352 11.5636 13.6187 10.8216 14.1166C10.0796 14.6145 9.50185 15.3211 9.16127 16.1472C8.8207 16.9733 8.73261 17.8818 8.90814 18.7579C9.08368 19.6341 9.51495 20.4385 10.1475 21.0696C10.78 21.7008 11.5854 22.1303 12.4619 22.3039C13.3385 22.4775 14.2468 22.3874 15.0721 22.045C15.8974 21.7026 16.6028 21.1232 17.099 20.3801C17.5952 19.637 17.8601 18.7635 17.8601 17.87C17.8574 16.6703 17.379 15.5206 16.5297 14.6733C15.6805 13.8259 14.5298 13.35 13.3301 13.35V13.35ZM13.3301 20.79C12.753 20.788 12.1894 20.6151 11.7105 20.293C11.2317 19.971 10.859 19.5143 10.6395 18.9805C10.42 18.4468 10.3636 17.86 10.4774 17.2942C10.5912 16.7285 10.8701 16.2091 11.2789 15.8017C11.6876 15.3944 12.2079 15.1173 12.7741 15.0054C13.3402 14.8935 13.9268 14.9519 14.4598 15.1732C14.9928 15.3945 15.4482 15.7688 15.7686 16.2488C16.0891 16.7288 16.2601 17.2929 16.2601 17.87C16.2601 18.2543 16.1842 18.6348 16.0368 18.9897C15.8895 19.3447 15.6735 19.667 15.4013 19.9383C15.1291 20.2096 14.806 20.4244 14.4506 20.5706C14.0952 20.7168 13.7144 20.7913 13.3301 20.79V20.79Z" fill="white"/>
<path d="M23.62 13.35C22.726 13.35 21.8521 13.6151 21.1088 14.1118C20.3655 14.6084 19.7862 15.3143 19.444 16.1403C19.1019 16.9662 19.0124 17.875 19.1868 18.7518C19.3612 19.6286 19.7917 20.434 20.4239 21.0661C21.056 21.6983 21.8614 22.1287 22.7382 22.3032C23.615 22.4776 24.5238 22.388 25.3497 22.0459C26.1756 21.7038 26.8816 21.1245 27.3782 20.3812C27.8749 19.6379 28.14 18.764 28.14 17.87C28.1373 16.672 27.6603 15.5239 26.8132 14.6768C25.9661 13.8297 24.8179 13.3526 23.62 13.35V13.35ZM23.62 20.79C23.0425 20.79 22.4779 20.6187 21.9977 20.2979C21.5175 19.977 21.1433 19.521 20.9222 18.9874C20.7012 18.4539 20.6434 17.8668 20.7561 17.3003C20.8688 16.7339 21.1469 16.2136 21.5552 15.8052C21.9636 15.3969 22.4839 15.1188 23.0503 15.0061C23.6167 14.8934 24.2039 14.9513 24.7374 15.1723C25.271 15.3933 25.727 15.7675 26.0479 16.2477C26.3687 16.7279 26.54 17.2925 26.54 17.87C26.54 18.6444 26.2323 19.3871 25.6847 19.9348C25.1371 20.4824 24.3944 20.79 23.62 20.79V20.79Z" fill="white"/>
<path d="M6 11V23.55H8V12H29.34V10H7C6.73478 10 6.48043 10.1054 6.29289 10.2929C6.10536 10.4804 6 10.7348 6 11Z" fill="white"/>
</svg>
