<svg width="31" height="30" viewBox="0 0 31 30" fill="none" xmlns="http://www.w3.org/2000/svg">
<path d="M6.73324 4.0275C6.45251 3.82918 6.12266 3.71184 5.77975 3.6883C5.43684 3.66477 5.09405 3.73594 4.78886 3.89406C4.48366 4.05217 4.2278 4.29113 4.04924 4.58483C3.87068 4.87853 3.77628 5.21566 3.77637 5.55938V24.4406C3.77628 24.7843 3.87068 25.1215 4.04924 25.4152C4.2278 25.7089 4.48366 25.9478 4.78886 26.106C5.09405 26.2641 5.43684 26.3352 5.77975 26.3117C6.12266 26.2882 6.45251 26.1708 6.73324 25.9725L20.1076 16.5319C20.3529 16.3588 20.553 16.1292 20.6912 15.8627C20.8293 15.5961 20.9014 15.3002 20.9014 15C20.9014 14.6998 20.8293 14.4039 20.6912 14.1373C20.553 13.8708 20.3529 13.6413 20.1076 13.4681L6.73324 4.0275ZM5.65137 5.55938L19.0257 15L5.65137 24.4406V5.55938Z" fill="white"/>
<path d="M26.2764 4.6875C26.2764 4.43886 26.1776 4.2004 26.0018 4.02459C25.826 3.84877 25.5875 3.75 25.3389 3.75C25.0902 3.75 24.8518 3.84877 24.676 4.02459C24.5001 4.2004 24.4014 4.43886 24.4014 4.6875V25.3125C24.4014 25.5611 24.5001 25.7996 24.676 25.9754C24.8518 26.1512 25.0902 26.25 25.3389 26.25C25.5875 26.25 25.826 26.1512 26.0018 25.9754C26.1776 25.7996 26.2764 25.5611 26.2764 25.3125V4.6875Z" fill="white"/>
</svg>
