<svg xmlns="http://www.w3.org/2000/svg" viewBox="0 0 48 48"><path fill="#199be2" d="M35.983,32.448l-3.536,3.536l7.87,7.87c0.195,0.195,0.512,0.195,0.707,0l2.828-2.828	c0.195-0.195,0.195-0.512,0-0.707L35.983,32.448z"></path><radialGradient id="eRNmcsAyqJzyQtK0oJ_Tda" cx="20.024" cy="233.904" r="19.604" gradientTransform="matrix(1 0 0 -1 0 254)" gradientUnits="userSpaceOnUse"><stop offset=".693" stop-color="#006185"></stop><stop offset=".921" stop-color="#35c1f1"></stop></radialGradient><polygon fill="url(#eRNmcsAyqJzyQtK0oJ_Tda)" points="31.601,28.065 28.065,31.601 32.448,35.983 35.983,32.448"></polygon><linearGradient id="eRNmcsAyqJzyQtK0oJ_Tdb" x1="8.911" x2="31.339" y1="245.089" y2="222.661" gradientTransform="matrix(1 0 0 -1 0 254)" gradientUnits="userSpaceOnUse"><stop offset="0" stop-color="#a3ffff"></stop><stop offset=".223" stop-color="#9dfbff"></stop><stop offset=".53" stop-color="#8bf1ff"></stop><stop offset=".885" stop-color="#6ee0ff"></stop><stop offset="1" stop-color="#63daff"></stop></linearGradient><circle cx="20" cy="20" r="16" fill="url(#eRNmcsAyqJzyQtK0oJ_Tdb)"></circle><path fill="#1b9de2" d="M12.5,26.75c0-0.414,3-3.75,7.5-3.75s7.5,3.336,7.5,3.75s-0.336,0.75-0.75,0.75	c-0.067,0-3.408-1.75-6.75-1.75c-3.338,0-6.677,1.75-6.75,1.75C12.836,27.5,12.5,27.164,12.5,26.75z M24.858,18.642	c1.144,1.144,2.998,1.144,4.142,0L24.858,14.5C23.714,15.644,23.714,17.498,24.858,18.642z M15.142,18.642	c1.144-1.144,1.144-2.998,0-4.142L11,18.642C12.144,19.786,13.998,19.786,15.142,18.642z"></path></svg>
