<svg width="30" height="30" viewBox="0 0 30 30" fill="none" xmlns="http://www.w3.org/2000/svg">
<path d="M15 1.875C7.75195 1.875 1.875 7.75195 1.875 15C1.875 22.248 7.75195 28.125 15 28.125C22.248 28.125 28.125 22.248 28.125 15C28.125 7.75195 22.248 1.875 15 1.875ZM15 25.8984C8.98242 25.8984 4.10156 21.0176 4.10156 15C4.10156 8.98242 8.98242 4.10156 15 4.10156C21.0176 4.10156 25.8984 8.98242 25.8984 15C25.8984 21.0176 21.0176 25.8984 15 25.8984ZM12.4219 10.3125H11.0156C10.8867 10.3125 10.7812 10.418 10.7812 10.5469V19.4531C10.7812 19.582 10.8867 19.6875 11.0156 19.6875H12.4219C12.5508 19.6875 12.6562 19.582 12.6562 19.4531V10.5469C12.6562 10.418 12.5508 10.3125 12.4219 10.3125ZM18.9844 10.3125H17.5781C17.4492 10.3125 17.3438 10.418 17.3438 10.5469V19.4531C17.3438 19.582 17.4492 19.6875 17.5781 19.6875H18.9844C19.1133 19.6875 19.2188 19.582 19.2188 19.4531V10.5469C19.2188 10.418 19.1133 10.3125 18.9844 10.3125Z" fill="white"/>
</svg>
