<svg width="28" height="28" viewBox="0 0 28 28" fill="none" xmlns="http://www.w3.org/2000/svg">
<path d="M13.803 4.385C14.766 2.354 17.45 1.889 19.039 3.478L24.522 8.961C26.111 10.551 25.646 13.234 23.615 14.196L18.225 16.75C17.8189 16.9424 17.5024 17.2836 17.341 17.703L15.752 21.833C15.6474 22.105 15.4764 22.3466 15.2547 22.5359C15.033 22.7251 14.7676 22.8559 14.4825 22.9165C14.1974 22.9771 13.9016 22.9656 13.6221 22.8829C13.3426 22.8002 13.0882 22.649 12.882 22.443L9.75 19.31L4.06 25H3V23.94L8.69 18.25L5.558 15.118C5.352 14.9118 5.20076 14.6575 5.118 14.378C5.03523 14.0986 5.02357 13.8029 5.08406 13.5178C5.14456 13.2327 5.2753 12.9673 5.46441 12.7455C5.65353 12.5238 5.89503 12.3527 6.167 12.248L10.297 10.659C10.717 10.498 11.058 10.181 11.25 9.775L13.803 4.385V4.385ZM17.978 4.539C17.7797 4.34069 17.5367 4.19293 17.2694 4.10817C17.002 4.02341 16.7183 4.00414 16.442 4.05198C16.1656 4.09981 15.9048 4.21335 15.6816 4.38304C15.4583 4.55272 15.2791 4.77357 15.159 5.027L12.606 10.417C12.2487 11.1713 11.615 11.7592 10.836 12.059L6.706 13.648C6.66707 13.6629 6.63247 13.6872 6.60535 13.7188C6.57822 13.7505 6.55944 13.7884 6.55069 13.8291C6.54195 13.8698 6.54353 13.9121 6.55528 13.9521C6.56704 13.9921 6.5886 14.0285 6.618 14.058L13.942 21.382C13.9715 21.4114 14.0078 21.433 14.0477 21.4449C14.0876 21.4567 14.1299 21.4583 14.1706 21.4497C14.2113 21.4411 14.2492 21.4224 14.2809 21.3954C14.3126 21.3684 14.337 21.3339 14.352 21.295L15.941 17.165C16.2405 16.3857 16.8285 15.7515 17.583 15.394L22.973 12.841C23.2266 12.721 23.4476 12.5417 23.6174 12.3184C23.7873 12.095 23.9009 11.8341 23.9487 11.5576C23.9966 11.2812 23.9772 10.9972 23.8923 10.7298C23.8075 10.4624 23.6595 10.2193 23.461 10.021L17.978 4.54V4.539Z" fill="white"/>
</svg>
