<svg width="30" height="30" viewBox="0 0 30 30" fill="none" xmlns="http://www.w3.org/2000/svg">
<path fill-rule="evenodd" clip-rule="evenodd" d="M16.125 1.87499C19.125 2.06249 21.9375 3.56249 24 5.62499C26.4375 8.24999 27.75 11.4375 27.75 15.1875C27.75 18.1875 26.625 21 24.75 23.4375C22.875 25.6875 20.25 27.375 17.25 27.9375C14.25 28.5 11.25 28.125 8.62504 26.625C6.00004 25.125 3.93754 22.875 2.81254 20.0625C1.68754 17.25 1.50004 14.0625 2.43754 11.25C3.37504 8.24999 5.06254 5.81249 7.68754 4.12499C10.125 2.43749 13.125 1.68749 16.125 1.87499ZM17.0625 26.0625C19.5 25.5 21.75 24.1875 23.4375 22.125C24.9375 20.0625 25.875 17.625 25.6875 15C25.6875 12 24.5625 8.99999 22.5 6.93749C20.625 5.06249 18.375 3.93749 15.75 3.74999C13.3125 3.56249 10.6875 4.12499 8.62504 5.62499C6.56254 7.12499 5.06254 9.18749 4.31254 11.8125C3.56254 14.25 3.56254 16.875 4.68754 19.3125C5.81254 21.75 7.50004 23.625 9.75004 24.9375C12 26.25 14.625 26.625 17.0625 26.0625V26.0625Z" fill="white"/>
<path fill-rule="evenodd" clip-rule="evenodd" d="M11.25 9.375L12.7069 8.595L21.1444 14.22V15.78L12.7069 21.405L11.25 20.625V9.375ZM13.125 11.1263V18.8738L18.9356 15L13.125 11.1263Z" fill="white"/>
</svg>
