<svg xmlns="http://www.w3.org/2000/svg" viewBox="0 0 48 48"><linearGradient id="RZDECxFMuD7hl14~ax2Vta" x1="4" x2="37" y1="29" y2="29" gradientUnits="userSpaceOnUse"><stop offset="0" stop-color="#42a3f2"></stop><stop offset="1" stop-color="#42a4eb"></stop></linearGradient><path fill="url(#RZDECxFMuD7hl14~ax2Vta)" d="M37,31H5c-0.552,0-1-0.448-1-1v-2c0-0.552,0.448-1,1-1h32V31z"></path><linearGradient id="RZDECxFMuD7hl14~ax2Vtb" x1="4" x2="37" y1="37" y2="37" gradientUnits="userSpaceOnUse"><stop offset="0" stop-color="#42a3f2"></stop><stop offset="1" stop-color="#42a4eb"></stop></linearGradient><path fill="url(#RZDECxFMuD7hl14~ax2Vtb)" d="M37,39H5c-0.552,0-1-0.448-1-1v-2c0-0.552,0.448-1,1-1h32V39z"></path><linearGradient id="RZDECxFMuD7hl14~ax2Vtc" x1="4" x2="37" y1="21" y2="21" gradientUnits="userSpaceOnUse"><stop offset="0" stop-color="#42a3f2"></stop><stop offset="1" stop-color="#42a4eb"></stop></linearGradient><path fill="url(#RZDECxFMuD7hl14~ax2Vtc)" d="M37,23H5c-0.552,0-1-0.448-1-1v-2c0-0.552,0.448-1,1-1h32V23z"></path><linearGradient id="RZDECxFMuD7hl14~ax2Vtd" x1="4" x2="37" y1="13" y2="13" gradientUnits="userSpaceOnUse"><stop offset="0" stop-color="#42a3f2"></stop><stop offset="1" stop-color="#42a4eb"></stop></linearGradient><path fill="url(#RZDECxFMuD7hl14~ax2Vtd)" d="M37,15H5c-0.552,0-1-0.448-1-1v-2c0-0.552,0.448-1,1-1h32V15z"></path><linearGradient id="RZDECxFMuD7hl14~ax2Vte" x1="32.5" x2="32.5" y1="15" y2="67.594" gradientUnits="userSpaceOnUse"><stop offset="0" stop-color="#ed3675"></stop><stop offset="1" stop-color="#ca1b4d"></stop></linearGradient><path fill="url(#RZDECxFMuD7hl14~ax2Vte)" d="M32.5,29c-4.141,0-7.5,3.359-7.5,7.5s3.359,7.5,7.5,7.5s7.5-3.358,7.5-7.5S36.641,29,32.5,29z"></path><linearGradient id="RZDECxFMuD7hl14~ax2Vtf" x1="38.5" x2="46" y1="9.5" y2="9.5" gradientUnits="userSpaceOnUse"><stop offset="0" stop-color="#bd1949"></stop><stop offset=".108" stop-color="#c31a4b"></stop><stop offset=".38" stop-color="#ca1b4d"></stop><stop offset="1" stop-color="#cc1b4e"></stop></linearGradient><path fill="url(#RZDECxFMuD7hl14~ax2Vtf)" d="M44.5,6h-6v1v5v1h6c0.828,0,1.5-0.672,1.5-1.5v-1v-2v-1C46,6.672,45.328,6,44.5,6z"></path><linearGradient id="RZDECxFMuD7hl14~ax2Vtg" x1="37.5" x2="37.5" y1="15" y2="67.594" gradientUnits="userSpaceOnUse"><stop offset="0" stop-color="#ed3675"></stop><stop offset="1" stop-color="#ca1b4d"></stop></linearGradient><path fill="url(#RZDECxFMuD7hl14~ax2Vtg)" d="M40,6h-2.333C36.193,6,35,7.18,35,8.637V36.5h5V6z"></path></svg>
