<svg fill="currentColor" xmlns="http://www.w3.org/2000/svg"  viewBox="0 0 64 64" width="28px" height="28px" baseProfile="basic"><path d="M13,46h16.205c0.338,1.549,1.093,2.903,2.174,4H13c-1.104,0-2-0.895-2-2C11,46.895,11.896,46,13,46z"/><path d="M12.999,38l18.714,0c-1.142,0.918-2.077,2.195-2.486,4L13,42c-1.104,0-2-0.895-2-2C11,38.895,11.895,38,12.999,38z"/><path d="M13,30h28v4H13c-1.104,0-2-0.895-2-2C11,30.895,11.896,30,13,30z"/><path d="M13,22h28v4H13c-1.104,0-2-0.895-2-2C11,22.895,11.896,22,13,22z"/><path d="M13,14h28v4H13c-1.104,0-2-0.895-2-2C11,14.895,11.896,14,13,14z"/><path d="M54.026,9.158C54.997,8.834,56,9.557,56,10.581v7.484c0,0.829-0.511,1.572-1.286,1.868l-5.75,2.199	C48.384,22.353,48,22.911,48,23.532V39c0,8-4.083,11-8.561,11C35.026,50,32,47.754,32,44.079c0-3.39,2.07-4.633,6.224-5.553	c4.067-0.9,5.776-1.327,5.776-4.142V13.942c0-0.861,0.551-1.625,1.368-1.897L54.026,9.158z" /></svg>