<svg width="28" height="28" viewBox="0 0 28 28" fill="none" xmlns="http://www.w3.org/2000/svg">
<path d="M16.8493 6.0585H25.1201C25.6925 6.0585 26.1638 5.6064 26.1638 5.02445C26.1638 4.45211 25.6925 4 25.1201 4H16.8493C16.2748 4 15.8227 4.45211 15.8227 5.02445C15.8227 5.6064 16.2748 6.0585 16.8493 6.0585ZM16.8493 12.1991H25.1201C25.6925 12.1991 26.1638 11.747 26.1638 11.163C26.1638 10.5906 25.6925 10.1385 25.1201 10.1385H16.8493C16.2748 10.1385 15.8227 10.5906 15.8227 11.163C15.8227 11.747 16.2748 12.1991 16.8493 12.1991ZM3.02445 18.3376H25.1201C25.6925 18.3376 26.1638 17.8759 26.1638 17.3036C26.1638 16.7312 25.6925 16.277 25.1201 16.277H3.02445C2.45211 16.277 2 16.7312 2 17.3036C2 17.8759 2.45211 18.3376 3.02445 18.3376ZM3.02445 24.4666H25.1201C25.6925 24.4666 26.1638 24.0144 26.1638 23.4421C26.1638 22.8698 25.6925 22.408 25.1201 22.408H3.02445C2.45211 22.408 2 22.8698 2 23.4421C2 24.0144 2.45211 24.4666 3.02445 24.4666Z" fill="white"/>
<path d="M2.01172 12.0219C2.01172 13.0576 2.57445 13.6869 3.48687 13.6869C4.4014 13.6869 4.97374 13.0323 4.97374 12.0473V10.06C4.97374 9.77475 5.12585 9.60131 5.42069 9.60131H8.22969V10.7964C8.22969 11.7812 9.21664 12.1497 9.97156 11.5513L13.314 8.8703C13.8198 8.46459 13.8155 7.76077 13.314 7.36467L9.97156 4.67195C9.19531 4.04266 8.22969 4.4207 8.22969 5.43319V6.63929H5.07218C3.22578 6.63929 2.01172 7.7221 2.01172 9.576V12.0219Z" fill="white"/>
</svg>
