<svg width="30" height="30" viewBox="0 0 30 30" fill="none" xmlns="http://www.w3.org/2000/svg">
<path d="M3.75 15C3.75 14.7514 3.84877 14.5129 4.02459 14.3371C4.2004 14.1613 4.43886 14.0625 4.6875 14.0625H18.75C18.9986 14.0625 19.2371 14.1613 19.4129 14.3371C19.5887 14.5129 19.6875 14.7514 19.6875 15C19.6875 15.2486 19.5887 15.4871 19.4129 15.6629C19.2371 15.8387 18.9986 15.9375 18.75 15.9375H4.6875C4.43886 15.9375 4.2004 15.8387 4.02459 15.6629C3.84877 15.4871 3.75 15.2486 3.75 15ZM4.6875 8.4375H25.3125C25.5611 8.4375 25.7996 8.33873 25.9754 8.16291C26.1512 7.9871 26.25 7.74864 26.25 7.5C26.25 7.25136 26.1512 7.0129 25.9754 6.83709C25.7996 6.66127 25.5611 6.5625 25.3125 6.5625H4.6875C4.43886 6.5625 4.2004 6.66127 4.02459 6.83709C3.84877 7.0129 3.75 7.25136 3.75 7.5C3.75 7.74864 3.84877 7.9871 4.02459 8.16291C4.2004 8.33873 4.43886 8.4375 4.6875 8.4375ZM28.3944 13.6332L23.7069 12.227C23.5669 12.185 23.4191 12.1763 23.2751 12.2016C23.1312 12.2269 22.9951 12.2856 22.8779 12.3728C22.7606 12.4601 22.6654 12.5735 22.5998 12.7041C22.5342 12.8347 22.5 12.9788 22.5 13.125V19.2545C21.7852 18.842 20.9543 18.6769 20.1362 18.7848C19.318 18.8927 18.5583 19.2676 17.9749 19.8512C17.3915 20.4349 17.017 21.1948 16.9095 22.013C16.802 22.8312 16.9675 23.662 17.3803 24.3766C17.7932 25.0912 18.4302 25.6495 19.1928 25.9651C19.9553 26.2807 20.8006 26.3359 21.5977 26.122C22.3947 25.9082 23.099 25.4373 23.6011 24.7824C24.1033 24.1275 24.3753 23.3252 24.375 22.5V14.385L27.8556 15.4291C27.9736 15.465 28.0976 15.4772 28.2204 15.465C28.3432 15.4528 28.4623 15.4166 28.571 15.3583C28.6798 15.3 28.7759 15.2208 28.854 15.1252C28.932 15.0297 28.9905 14.9197 29.0259 14.8015C29.0614 14.6833 29.0731 14.5593 29.0606 14.4366C29.048 14.3139 29.0113 14.1948 28.9527 14.0863C28.894 13.9777 28.8145 13.8819 28.7187 13.8041C28.6229 13.7264 28.5127 13.6683 28.3944 13.6332ZM13.125 21.5625H4.6875C4.43886 21.5625 4.2004 21.6613 4.02459 21.8371C3.84877 22.0129 3.75 22.2514 3.75 22.5C3.75 22.7486 3.84877 22.9871 4.02459 23.1629C4.2004 23.3387 4.43886 23.4375 4.6875 23.4375H13.125C13.3736 23.4375 13.6121 23.3387 13.7879 23.1629C13.9637 22.9871 14.0625 22.7486 14.0625 22.5C14.0625 22.2514 13.9637 22.0129 13.7879 21.8371C13.6121 21.6613 13.3736 21.5625 13.125 21.5625Z" fill="white"/>
</svg>
