<svg width="28" height="28" viewBox="0 0 28 28" fill="none" xmlns="http://www.w3.org/2000/svg">
<path d="M4.5 3.75C4.5 3.55109 4.42098 3.36032 4.28033 3.21967C4.13968 3.07902 3.94891 3 3.75 3C3.55109 3 3.36032 3.07902 3.21967 3.21967C3.07902 3.36032 3 3.55109 3 3.75V24.25C3 24.4489 3.07902 24.6397 3.21967 24.7803C3.36032 24.921 3.55109 25 3.75 25C3.94891 25 4.13968 24.921 4.28033 24.7803C4.42098 24.6397 4.5 24.4489 4.5 24.25V3.75ZM25 5.254C25 3.438 22.959 2.37 21.467 3.406L8.963 12.086C8.6656 12.2924 8.42239 12.5674 8.254 12.8879C8.08561 13.2083 7.99701 13.5646 7.99574 13.9266C7.99446 14.2886 8.08054 14.6455 8.24667 14.9671C8.4128 15.2888 8.65407 15.5655 8.95 15.774L21.454 24.584C22.944 25.634 25 24.569 25 22.745V5.254ZM22.322 4.638C22.4345 4.55982 22.5662 4.51395 22.703 4.50536C22.8397 4.49677 22.9761 4.52579 23.0975 4.58927C23.2189 4.65275 23.3206 4.74826 23.3916 4.86545C23.4625 4.98263 23.5 5.11701 23.5 5.254V22.745C23.5 22.8824 23.4622 23.0171 23.3909 23.1345C23.3195 23.2519 23.2172 23.3475 23.0953 23.4107C22.9733 23.474 22.8363 23.5025 22.6993 23.4932C22.5622 23.4839 22.4303 23.4371 22.318 23.358L9.814 14.548C9.7152 14.4786 9.63463 14.3863 9.57914 14.279C9.52365 14.1718 9.49488 14.0527 9.49527 13.932C9.49566 13.8112 9.52521 13.6923 9.5814 13.5854C9.63759 13.4785 9.71875 13.3868 9.818 13.318L22.322 4.638Z" fill="white"/>
</svg>
