<svg fill="currentColor" xmlns="http://www.w3.org/2000/svg"  viewBox="0 0 64 64" width="28px" height="28px" baseProfile="basic"><path d="M51,48H25c-1.104,0-2-0.896-2-2s0.896-2,2-2h26c1.104,0,2,0.896,2,2S52.104,48,51,48z"/><path d="M16.356,45.919c1.121,0.082,1.962,1.032,1.962,2.222c0,1.647-1.524,2.816-3.678,2.816c-1.9,0-3.391-1.032-3.391-2.201	c0-0.52,0.362-0.889,0.861-0.889c0.328,0,0.602,0.157,0.909,0.54c0.417,0.561,0.957,0.848,1.62,0.848c0.902,0,1.49-0.472,1.49-1.203	c0-0.725-0.595-1.217-1.483-1.217h-0.554c-0.472,0-0.82-0.362-0.82-0.861c0-0.479,0.342-0.848,0.82-0.848h0.533	c0.738,0,1.285-0.465,1.285-1.101s-0.533-1.073-1.299-1.073c-0.588,0-1.053,0.26-1.47,0.813c-0.246,0.321-0.533,0.465-0.889,0.465	c-0.526,0-0.902-0.355-0.902-0.861c0-1.128,1.456-2.119,3.302-2.119c1.996,0,3.391,1.032,3.391,2.502c0,1.005-0.745,1.9-1.688,2.017	V45.919z"/><path d="M51,34H25c-1.104,0-2-0.896-2-2s0.896-2,2-2h26c1.104,0,2,0.896,2,2S52.104,34,51,34z"/><path d="M17.345,35.209c0.636,0,1.032,0.342,1.032,0.902c0,0.554-0.39,0.889-1.032,0.889h-4.676c-0.663,0-1.101-0.376-1.101-0.95	c0-0.41,0.226-0.766,0.909-1.436l2.365-2.434c0.731-0.745,1.039-1.237,1.039-1.757c0-0.67-0.485-1.121-1.203-1.121	c-0.581,0-1.005,0.294-1.306,0.902c-0.301,0.465-0.561,0.643-0.957,0.643c-0.54,0-0.916-0.369-0.916-0.889	c0-1.271,1.436-2.461,3.302-2.461c1.88,0,3.254,1.148,3.254,2.714c0,0.964-0.465,1.812-1.606,2.933l-1.948,1.969v0.096H17.345z"/><path d="M51,20.019H25c-1.104,0-2-0.896-2-2s0.896-2,2-2h26c1.104,0,2,0.896,2,2S52.104,20.019,51,20.019z"/><path d="M14.765,21.797v-6.146h-0.027l-0.718,0.485c-0.355,0.226-0.547,0.294-0.772,0.294c-0.451,0-0.779-0.328-0.779-0.779	c0-0.335,0.205-0.636,0.608-0.889l1.114-0.745c0.533-0.342,1.019-0.499,1.477-0.499c0.8,0,1.333,0.54,1.333,1.374v6.904	C17,22.569,16.597,23,15.886,23C15.168,23,14.765,22.563,14.765,21.797z"/></svg>