<svg width="28" height="28" viewBox="0 0 28 28" fill="none" xmlns="http://www.w3.org/2000/svg">
<path d="M2.20702 14.46C2.88131 14.46 3.40983 13.9294 3.40983 13.253V12.2093C3.40983 10.1789 4.78303 8.87904 6.93787 8.87904H15.9983V11.5844C15.9983 12.1439 16.3365 12.4746 16.9014 12.4746C17.1566 12.4746 17.4004 12.3799 17.5855 12.2224L22.1818 8.38991C22.6159 8.03249 22.633 7.45921 22.1818 7.08257L17.5855 3.24258C17.4004 3.08719 17.1566 3 16.9014 3C16.3365 3 15.9983 3.32109 15.9983 3.89226V6.52664H7.12115C3.38804 6.52664 1 8.59757 1 11.9758V13.253C1 13.9294 1.52101 14.46 2.20702 14.46ZM25.5676 13.3432C24.8816 13.3432 24.3627 13.8642 24.3627 14.5502V15.5939C24.3627 17.6243 22.9916 18.9124 20.8251 18.9124H11.7646V16.2316C11.7646 15.6605 11.436 15.3394 10.8712 15.3394C10.6063 15.3394 10.3722 15.4244 10.1795 15.5819L5.58109 19.4144C5.14703 19.7932 5.13953 20.3568 5.58109 20.7218L10.1795 24.5618C10.3722 24.7193 10.6063 24.8139 10.8712 24.8139C11.436 24.8139 11.7646 24.4832 11.7646 23.9238V21.2765H20.6418C24.3845 21.2765 26.7725 19.2035 26.7725 15.8273V14.5502C26.7725 13.8642 26.2419 13.3432 25.5676 13.3432Z" fill="white"/>
</svg>
