<svg width="28" height="28" viewBox="0 0 28 28" fill="none" xmlns="http://www.w3.org/2000/svg">
<path d="M2.20702 14.7471C2.90241 14.7471 3.40983 14.2376 3.40983 13.5401V12.4964C3.40983 10.466 4.78303 9.16615 6.93787 9.16615H13.1636V11.8715C13.1636 12.431 13.5018 12.7617 14.0666 12.7617C14.3219 12.7617 14.556 12.667 14.7508 12.5095L19.3471 8.67702C19.7929 8.30999 19.7983 7.74632 19.3471 7.36968L14.7508 3.52969C14.556 3.3743 14.3219 3.28711 14.0666 3.28711C13.5018 3.28711 13.1636 3.6082 13.1636 4.17937V6.81375H7.12115C3.38804 6.81375 1 8.88468 1 12.263V13.5401C1 14.2354 1.50203 14.7471 2.20702 14.7471ZM25.5676 13.6303C24.8626 13.6303 24.3627 14.1281 24.3627 14.8373V15.881C24.3627 17.9114 22.9916 19.1995 20.8251 19.1995H11.7646V16.5187C11.7646 15.9476 11.436 15.6265 10.8712 15.6265C10.6063 15.6265 10.3722 15.7115 10.1795 15.869L5.58109 19.7015C5.14703 20.0803 5.13953 20.644 5.58109 21.0089L10.1795 24.8489C10.3722 25.0064 10.6063 25.1011 10.8712 25.1011C11.436 25.1011 11.7646 24.7704 11.7646 24.2109V21.5636H20.6418C24.3845 21.5636 26.7725 19.4906 26.7725 16.1144V14.8373C26.7725 14.1323 26.263 13.6303 25.5676 13.6303Z" fill="white"/>
<path d="M25.6006 11.2024C26.3485 11.2024 26.8133 10.7639 26.8133 9.9621V4.4632C26.8133 3.58312 26.2154 3 25.3663 3C24.6831 3 24.2448 3.22242 23.7137 3.62695L22.1455 4.81172C21.8214 5.06156 21.7236 5.26898 21.7236 5.56031C21.7236 5.99624 22.048 6.31007 22.5151 6.31007C22.7256 6.31007 22.9065 6.25264 23.0799 6.10897L24.2621 5.16983H24.373V9.9621C24.373 10.7639 24.8474 11.2024 25.6006 11.2024Z" fill="white"/>
</svg>
