<svg width="28" height="28" viewBox="0 0 28 28" fill="none" xmlns="http://www.w3.org/2000/svg">
<path d="M9.31543 23.1816H18.6758C20.5566 23.1816 21.5322 22.1973 21.5322 20.2988V7.03613C21.5322 5.14648 20.5566 4.15332 18.6758 4.15332H12.9453C12.04 4.15332 11.416 4.39062 10.8447 4.9707L7.21484 8.60938C6.66992 9.1543 6.45898 9.70801 6.45898 10.6396V20.2988C6.45898 22.1885 7.43457 23.1816 9.31543 23.1816ZM9.45605 21.459C8.60352 21.459 8.18164 21.0107 8.18164 20.1934V10.71C8.18164 10.1387 8.2959 9.81348 8.59473 9.50586L11.6709 6.41211C12.0312 6.04297 12.4268 5.87598 12.9805 5.87598H18.5264C19.3789 5.87598 19.8096 6.33301 19.8096 7.1416V20.1934C19.8096 21.0107 19.3789 21.459 18.5352 21.459H9.45605ZM11.9082 8.06445V10.7627C11.9082 11.0879 12.1719 11.3516 12.4971 11.3516C12.8223 11.3516 13.0859 11.0879 13.0859 10.7627V8.06445C13.0859 7.73047 12.8311 7.47559 12.4971 7.47559C12.1719 7.47559 11.9082 7.73926 11.9082 8.06445ZM13.7012 8.06445V10.7627C13.7012 11.0879 13.9736 11.3516 14.3076 11.3516C14.624 11.3516 14.8877 11.0879 14.8877 10.7627V8.06445C14.8877 7.73926 14.6328 7.47559 14.3076 7.47559C13.9736 7.47559 13.7012 7.73926 13.7012 8.06445ZM15.5205 8.06445V10.7627C15.5205 11.0879 15.7842 11.3516 16.1094 11.3516C16.4258 11.3516 16.6895 11.0879 16.6895 10.7627V8.06445C16.6895 7.73047 16.4346 7.47559 16.1094 7.47559C15.7754 7.47559 15.5205 7.73926 15.5205 8.06445ZM17.3311 8.06445V10.7539C17.3311 11.0879 17.5947 11.3516 17.9199 11.3516C18.2451 11.3516 18.5 11.0879 18.5 10.7539V8.06445C18.5 7.73047 18.2451 7.47559 17.9199 7.47559C17.5859 7.47559 17.3311 7.73926 17.3311 8.06445Z" fill="#F2F2F2"/>
</svg>
