<svg width="30" height="30" viewBox="0 0 30 30" fill="none" xmlns="http://www.w3.org/2000/svg">
<path d="M17.275 27.5H12.725C12.4399 27.5 12.1634 27.4026 11.9412 27.2239C11.7191 27.0452 11.5647 26.796 11.5037 26.5175L10.995 24.1625C10.3163 23.8651 9.67277 23.4933 9.07623 23.0538L6.77998 23.785C6.50818 23.8717 6.21491 23.8628 5.94888 23.7598C5.68284 23.6568 5.46004 23.4659 5.31748 23.2188L3.03748 19.28C2.89641 19.0327 2.84346 18.7448 2.88728 18.4634C2.93111 18.1821 3.06911 17.924 3.27873 17.7313L5.05998 16.1063C4.97897 15.3701 4.97897 14.6274 5.05998 13.8912L3.27873 12.27C3.06882 12.0772 2.93062 11.8188 2.88679 11.5372C2.84296 11.2556 2.89609 10.9675 3.03748 10.72L5.31248 6.77875C5.45504 6.53164 5.67784 6.34074 5.94388 6.23773C6.20991 6.13473 6.50318 6.12583 6.77498 6.2125L9.07123 6.94375C9.37623 6.71875 9.69373 6.50875 10.0212 6.31875C10.3375 6.14125 10.6625 5.98 10.995 5.83625L11.505 3.48375C11.5657 3.20525 11.7198 2.95586 11.9417 2.77694C12.1636 2.59801 12.4399 2.5003 12.725 2.5H17.275C17.56 2.5003 17.8364 2.59801 18.0583 2.77694C18.2802 2.95586 18.4343 3.20525 18.495 3.48375L19.01 5.8375C19.6883 6.13487 20.3314 6.50674 20.9275 6.94625L23.225 6.215C23.4966 6.12865 23.7896 6.13771 24.0554 6.2407C24.3211 6.34369 24.5437 6.53441 24.6862 6.78125L26.9612 10.7225C27.2512 11.2312 27.1512 11.875 26.72 12.2713L24.9387 13.8962C25.0197 14.6324 25.0197 15.3751 24.9387 16.1112L26.72 17.7362C27.1512 18.1337 27.2512 18.7763 26.9612 19.285L24.6862 23.2262C24.5437 23.4734 24.3209 23.6643 24.0548 23.7673C23.7888 23.8703 23.4955 23.8792 23.2237 23.7925L20.9275 23.0612C20.3314 23.5004 19.6883 23.8719 19.01 24.1687L18.495 26.5175C18.434 26.7958 18.2798 27.0449 18.058 27.2236C17.8361 27.4022 17.5598 27.4998 17.275 27.5ZM9.52498 20.2863L10.55 21.0363C10.7812 21.2063 11.0212 21.3625 11.2712 21.505C11.5062 21.6413 11.7462 21.7638 11.995 21.875L13.1612 22.3862L13.7325 25H16.27L16.8412 22.385L18.0075 21.8738C18.5162 21.6488 19 21.37 19.4487 21.0413L20.4737 20.2913L23.0262 21.1037L24.295 18.9062L22.3162 17.1025L22.4562 15.8375C22.5187 15.2838 22.5187 14.725 22.4562 14.1725L22.3162 12.9075L24.2962 11.1L23.0262 8.90125L20.475 9.71375L19.4487 8.96375C18.9997 8.63336 18.5165 8.35217 18.0075 8.125L16.8412 7.61375L16.27 5H13.7325L13.1575 7.615L11.995 8.125C11.4852 8.34826 11.0018 8.62747 10.5537 8.9575L9.52748 9.7075L6.97748 8.895L5.70623 11.1L7.68498 12.9012L7.54498 14.1675C7.48248 14.7212 7.48248 15.28 7.54498 15.8325L7.68498 17.0975L5.70623 18.9013L6.97498 21.0987L9.52498 20.2863ZM14.995 20C13.6689 20 12.3971 19.4732 11.4594 18.5355C10.5218 17.5979 9.99498 16.3261 9.99498 15C9.99498 13.6739 10.5218 12.4021 11.4594 11.4645C12.3971 10.5268 13.6689 10 14.995 10C16.3211 10 17.5928 10.5268 18.5305 11.4645C19.4682 12.4021 19.995 13.6739 19.995 15C19.995 16.3261 19.4682 17.5979 18.5305 18.5355C17.5928 19.4732 16.3211 20 14.995 20ZM14.995 12.5C14.5054 12.5005 14.0268 12.6447 13.6185 12.9148C13.2101 13.1848 12.8901 13.5688 12.698 14.0191C12.5059 14.4694 12.4503 14.9662 12.5379 15.4478C12.6256 15.9295 12.8528 16.3747 13.1913 16.7284C13.5297 17.0821 13.9646 17.3287 14.4419 17.4375C14.9192 17.5463 15.418 17.5125 15.8763 17.3405C16.3346 17.1684 16.7323 16.8655 17.0201 16.4694C17.3078 16.0734 17.4729 15.6016 17.495 15.1125V15.6125V15C17.495 14.337 17.2316 13.7011 16.7627 13.2322C16.2939 12.7634 15.658 12.5 14.995 12.5Z" fill="white"/>
</svg>
