<svg width="20" height="20" viewBox="0 0 20 20" fill="none" xmlns="http://www.w3.org/2000/svg">
<path d="M14.1666 14.1667H12.8675L4.78413 5.2725C4.70599 5.18663 4.61077 5.11803 4.50458 5.0711C4.39839 5.02418 4.28356 4.99996 4.16746 5H1.66663V6.66667H3.79913L7.20746 10.4167L3.79913 14.1675H1.66663V15.8342H4.16746C4.28356 15.8342 4.39839 15.81 4.50458 15.7631C4.61077 15.7161 4.70599 15.6475 4.78413 15.5617L8.33329 11.6558L11.8825 15.5608C11.9606 15.6467 12.0558 15.7153 12.162 15.7622C12.2682 15.8092 12.383 15.8334 12.4991 15.8333H14.1666V18.3333L18.3333 15L14.1666 11.6667V14.1667V14.1667Z" fill="white"/>
<path d="M12.8675 6.66667H14.1666V9.16667L18.3333 5.885L14.1666 2.5V5H12.4991C12.383 4.99996 12.2682 5.02418 12.162 5.0711C12.0558 5.11803 11.9606 5.18663 11.8825 5.2725L9.07581 8.36167L10.3091 9.48333L12.8675 6.66667Z" fill="white"/>
</svg>
