<svg width="28" height="28" viewBox="0 0 28 28" fill="none" xmlns="http://www.w3.org/2000/svg">
<path d="M3.5498 18.3389C3.5498 18.8486 3.94531 19.209 4.49023 19.209H6.55566C8.06738 19.209 8.95508 18.7695 9.99219 17.5479L12.1191 15.0166L14.2197 17.5039C15.2832 18.7695 16.2852 19.209 17.7969 19.209H19.5547V21.3271C19.5547 21.749 19.8096 21.9951 20.2314 21.9951C20.4248 21.9951 20.6006 21.9248 20.75 21.8105L24.1953 18.9365C24.5293 18.6641 24.5293 18.2422 24.1953 17.9521L20.75 15.0781C20.6006 14.9551 20.4248 14.8936 20.2314 14.8936C19.8096 14.8936 19.5547 15.1309 19.5547 15.5615V17.46H17.8496C16.8125 17.46 16.1357 17.1172 15.3887 16.2207L13.2441 13.6807L15.3975 11.1318C16.1621 10.2266 16.7773 9.90137 17.7969 9.90137H19.5547V11.835C19.5547 12.2568 19.8096 12.5029 20.2314 12.5029C20.4248 12.5029 20.6006 12.4326 20.75 12.3184L24.1953 9.44434C24.5293 9.17188 24.5293 8.75 24.1953 8.45996L20.75 5.58594C20.6006 5.46289 20.4248 5.40137 20.2314 5.40137C19.8096 5.40137 19.5547 5.63867 19.5547 6.06934V8.14355H17.8057C16.2412 8.14355 15.2832 8.57422 14.167 9.91016L12.1191 12.3447L9.99219 9.81348C8.95508 8.5918 8.00586 8.15234 6.50293 8.15234H4.49023C3.94531 8.15234 3.5498 8.5127 3.5498 9.02246C3.5498 9.53223 3.94531 9.90137 4.49023 9.90137H6.43262C7.41699 9.90137 8.10254 10.2441 8.8584 11.1406L10.9941 13.6807L8.8584 16.2207C8.10254 17.1172 7.46973 17.46 6.49414 17.46H4.49023C3.94531 17.46 3.5498 17.8291 3.5498 18.3389Z" fill="#F2F2F2"/>
</svg>
