<svg width="28" height="28" viewBox="0 0 28 28" fill="none" xmlns="http://www.w3.org/2000/svg">
<g clip-path="url(#clip0_308_586)">
<path d="M23.1318 14.1377C25.5928 14.1377 27.6582 12.0811 27.6582 9.61133C27.6582 7.12402 25.6104 5.08496 23.1318 5.08496C20.6533 5.08496 18.6055 7.13281 18.6055 9.61133C18.6055 12.0986 20.6533 14.1377 23.1318 14.1377ZM6.81055 21.7666H21.3916C23.0879 21.7666 24.0723 20.7822 24.0723 18.9014V15.3066C23.5977 15.4121 22.8857 15.4209 22.3232 15.3066V18.752C22.3232 19.5957 21.875 20.0176 21.0664 20.0176H6.9248C6.11621 20.0176 5.66797 19.5957 5.66797 18.7432V12.0723H17.9551C17.709 11.5977 17.5244 11.0791 17.4365 10.5342H5.66797V8.33691C5.66797 7.53711 6.11621 7.11523 6.89844 7.11523H8.56836C9.19238 7.11523 9.56152 7.26465 10.0625 7.66895L10.5547 8.08203C11.1699 8.57422 11.6445 8.75 12.5674 8.75H17.4453C17.5156 8.12598 17.6562 7.58105 17.9551 6.99219H13.0332C12.4004 6.99219 12.0225 6.85156 11.5303 6.44727L11.0381 6.04297C10.4141 5.5332 9.95703 5.36621 9.03418 5.36621H6.54688C4.89453 5.36621 3.91895 6.33301 3.91895 8.1875V18.9014C3.91895 20.791 4.91211 21.7666 6.81055 21.7666ZM20.8643 10.2178C20.5391 10.2178 20.2578 9.92773 20.2578 9.61133C20.2578 9.28613 20.5391 9.00488 20.8643 9.00488H25.3994C25.7334 9.00488 26.0059 9.28613 26.0059 9.61133C26.0059 9.92773 25.7334 10.2178 25.3994 10.2178H20.8643Z" fill="#fff"/>
<path d="M26.7314 6.32392C28.484 8.0765 28.4777 10.9912 26.7376 12.7314C24.9788 14.4902 22.0827 14.4902 20.3239 12.7314C18.5713 10.9788 18.5713 8.08271 20.3301 6.32392C22.0827 4.57135 24.9788 4.57135 26.7314 6.32392Z" fill="#fff"/>
<path d="M21.4986 10.6246C21.2438 10.8794 21.2438 11.2896 21.5048 11.5506C21.7721 11.8178 22.1885 11.8241 22.4433 11.5693L23.9783 10.0342L24.662 9.27599V9.95962L24.6247 11.0783C24.6185 11.2461 24.6806 11.4201 24.8111 11.5382C25.0535 11.7806 25.4326 11.7992 25.6688 11.5506C25.793 11.4139 25.849 11.2585 25.8366 11.0721L25.7371 8.01438C25.7309 7.77201 25.6812 7.62285 25.5569 7.49856C25.4388 7.38047 25.2834 7.33697 25.0535 7.33076L21.9834 7.21889C21.8031 7.21268 21.6478 7.26861 21.5173 7.39912C21.2749 7.6415 21.2749 8.02681 21.5297 8.25676C21.6478 8.37484 21.8218 8.43699 21.9834 8.43699L23.1083 8.40592L23.7919 8.39349L23.0337 9.08955L21.4986 10.6246Z" fill="black"/>
</g>
<defs>
<clipPath id="clip0_308_586">
<rect width="28" height="28" fill="white"/>
</clipPath>
</defs>
</svg>
