<svg width="189" height="36" viewBox="0 0 189 36" fill="none" xmlns="http://www.w3.org/2000/svg">
<path d="M15.6328 35L8.625 10.3203H8.41406C8.74219 14.5234 8.90625 17.7891 8.90625 20.1172V35H0.703125V0.734375H13.0312L20.1797 25.0625H20.3672L27.375 0.734375H39.7266V35H31.2188V19.9766C31.2188 19.1953 31.2266 18.3281 31.2422 17.375C31.2734 16.4219 31.3828 14.0859 31.5703 10.3672H31.3594L24.4453 35H15.6328ZM76.2422 0.734375V21.3594C76.2422 25.8438 74.9688 29.3203 72.4219 31.7891C69.8906 34.2422 66.2344 35.4688 61.4531 35.4688C56.7812 35.4688 53.1875 34.2734 50.6719 31.8828C48.1719 29.4922 46.9219 26.0547 46.9219 21.5703V0.734375H56.2266V20.8438C56.2266 23.2656 56.6797 25.0234 57.5859 26.1172C58.4922 27.2109 59.8281 27.7578 61.5938 27.7578C63.4844 27.7578 64.8516 27.2188 65.6953 26.1406C66.5547 25.0469 66.9844 23.2656 66.9844 20.7969V0.734375H76.2422ZM105.844 24.5938C105.844 26.7188 105.305 28.6094 104.227 30.2656C103.148 31.9062 101.594 33.1875 99.5625 34.1094C97.5312 35.0156 95.1484 35.4688 92.4141 35.4688C90.1328 35.4688 88.2188 35.3125 86.6719 35C85.125 34.6719 83.5156 34.1094 81.8438 33.3125V25.0625C83.6094 25.9688 85.4453 26.6797 87.3516 27.1953C89.2578 27.6953 91.0078 27.9453 92.6016 27.9453C93.9766 27.9453 94.9844 27.7109 95.625 27.2422C96.2656 26.7578 96.5859 26.1406 96.5859 25.3906C96.5859 24.9219 96.4531 24.5156 96.1875 24.1719C95.9375 23.8125 95.5234 23.4531 94.9453 23.0938C94.3828 22.7344 92.8672 22 90.3984 20.8906C88.1641 19.875 86.4844 18.8906 85.3594 17.9375C84.25 16.9844 83.4219 15.8906 82.875 14.6562C82.3438 13.4219 82.0781 11.9609 82.0781 10.2734C82.0781 7.11719 83.2266 4.65625 85.5234 2.89062C87.8203 1.125 90.9766 0.242188 94.9922 0.242188C98.5391 0.242188 102.156 1.0625 105.844 2.70312L103.008 9.85156C99.8047 8.38281 97.0391 7.64844 94.7109 7.64844C93.5078 7.64844 92.6328 7.85938 92.0859 8.28125C91.5391 8.70312 91.2656 9.22656 91.2656 9.85156C91.2656 10.5234 91.6094 11.125 92.2969 11.6562C93 12.1875 94.8906 13.1562 97.9688 14.5625C100.922 15.8906 102.969 17.3203 104.109 18.8516C105.266 20.3672 105.844 22.2812 105.844 24.5938ZM111.141 35V0.734375H120.445V35H111.141ZM143.133 7.83594C140.93 7.83594 139.211 8.74219 137.977 10.5547C136.742 12.3516 136.125 14.8359 136.125 18.0078C136.125 24.6016 138.633 27.8984 143.648 27.8984C145.164 27.8984 146.633 27.6875 148.055 27.2656C149.477 26.8438 150.906 26.3359 152.344 25.7422V33.5703C149.484 34.8359 146.25 35.4688 142.641 35.4688C137.469 35.4688 133.5 33.9688 130.734 30.9688C127.984 27.9688 126.609 23.6328 126.609 17.9609C126.609 14.4141 127.273 11.2969 128.602 8.60938C129.945 5.92188 131.867 3.85938 134.367 2.42188C136.883 0.96875 139.836 0.242188 143.227 0.242188C146.93 0.242188 150.469 1.04688 153.844 2.65625L151.008 9.94531C149.742 9.35156 148.477 8.85156 147.211 8.44531C145.945 8.03906 144.586 7.83594 143.133 7.83594Z" fill="white"/>
<path d="M160.289 14.4453C159.008 12.5859 158.367 9.9375 158.367 6.5V3.10156H167.602L185.039 22.2031C186.023 23.2969 186.68 24.2188 187.008 24.9688C187.336 25.7188 187.578 26.4062 187.734 27.0312C188.078 28.2812 188.25 29.8203 188.25 31.6484V35H179.273L160.359 14.4453H160.289ZM178.102 13.1094C178.102 8.8125 178.766 6.01562 180.094 4.71875C180.797 4.03125 181.711 3.59375 182.836 3.40625C183.977 3.20312 185.359 3.10156 186.984 3.10156H188.25V6.80469C188.25 10.1328 187.375 12.3594 185.625 13.4844C184.375 14.2969 182.273 14.7031 179.32 14.7031H178.102V13.1094ZM158.367 31.3438C158.367 28.0156 159.242 25.7812 160.992 24.6406C162.242 23.8438 164.344 23.4453 167.297 23.4453H168.516V25.0391C168.516 29.3828 167.852 32.1719 166.523 33.4062C165.617 34.25 164.297 34.75 162.562 34.9062C161.688 34.9688 160.711 35 159.633 35H158.367V31.3438Z" fill="#4AD168"/>
</svg>
