<svg width="191" height="54" viewBox="0 0 191 54" fill="none" xmlns="http://www.w3.org/2000/svg">
<path d="M17.6328 35L10.625 10.3203H10.4141C10.7422 14.5234 10.9062 17.7891 10.9062 20.1172V35H2.70312V0.734375H15.0312L22.1797 25.0625H22.3672L29.375 0.734375H41.7266V35H33.2188V19.9766C33.2188 19.1953 33.2266 18.3281 33.2422 17.375C33.2734 16.4219 33.3828 14.0859 33.5703 10.3672H33.3594L26.4453 35H17.6328ZM78.2422 0.734375V21.3594C78.2422 25.8438 76.9688 29.3203 74.4219 31.7891C71.8906 34.2422 68.2344 35.4688 63.4531 35.4688C58.7812 35.4688 55.1875 34.2734 52.6719 31.8828C50.1719 29.4922 48.9219 26.0547 48.9219 21.5703V0.734375H58.2266V20.8438C58.2266 23.2656 58.6797 25.0234 59.5859 26.1172C60.4922 27.2109 61.8281 27.7578 63.5938 27.7578C65.4844 27.7578 66.8516 27.2188 67.6953 26.1406C68.5547 25.0469 68.9844 23.2656 68.9844 20.7969V0.734375H78.2422ZM107.844 24.5938C107.844 26.7188 107.305 28.6094 106.227 30.2656C105.148 31.9062 103.594 33.1875 101.562 34.1094C99.5312 35.0156 97.1484 35.4688 94.4141 35.4688C92.1328 35.4688 90.2188 35.3125 88.6719 35C87.125 34.6719 85.5156 34.1094 83.8438 33.3125V25.0625C85.6094 25.9688 87.4453 26.6797 89.3516 27.1953C91.2578 27.6953 93.0078 27.9453 94.6016 27.9453C95.9766 27.9453 96.9844 27.7109 97.625 27.2422C98.2656 26.7578 98.5859 26.1406 98.5859 25.3906C98.5859 24.9219 98.4531 24.5156 98.1875 24.1719C97.9375 23.8125 97.5234 23.4531 96.9453 23.0938C96.3828 22.7344 94.8672 22 92.3984 20.8906C90.1641 19.875 88.4844 18.8906 87.3594 17.9375C86.25 16.9844 85.4219 15.8906 84.875 14.6562C84.3438 13.4219 84.0781 11.9609 84.0781 10.2734C84.0781 7.11719 85.2266 4.65625 87.5234 2.89062C89.8203 1.125 92.9766 0.242188 96.9922 0.242188C100.539 0.242188 104.156 1.0625 107.844 2.70312L105.008 9.85156C101.805 8.38281 99.0391 7.64844 96.7109 7.64844C95.5078 7.64844 94.6328 7.85938 94.0859 8.28125C93.5391 8.70312 93.2656 9.22656 93.2656 9.85156C93.2656 10.5234 93.6094 11.125 94.2969 11.6562C95 12.1875 96.8906 13.1562 99.9688 14.5625C102.922 15.8906 104.969 17.3203 106.109 18.8516C107.266 20.3672 107.844 22.2812 107.844 24.5938ZM113.141 35V0.734375H122.445V35H113.141ZM145.133 7.83594C142.93 7.83594 141.211 8.74219 139.977 10.5547C138.742 12.3516 138.125 14.8359 138.125 18.0078C138.125 24.6016 140.633 27.8984 145.648 27.8984C147.164 27.8984 148.633 27.6875 150.055 27.2656C151.477 26.8438 152.906 26.3359 154.344 25.7422V33.5703C151.484 34.8359 148.25 35.4688 144.641 35.4688C139.469 35.4688 135.5 33.9688 132.734 30.9688C129.984 27.9688 128.609 23.6328 128.609 17.9609C128.609 14.4141 129.273 11.2969 130.602 8.60938C131.945 5.92188 133.867 3.85938 136.367 2.42188C138.883 0.96875 141.836 0.242188 145.227 0.242188C148.93 0.242188 152.469 1.04688 155.844 2.65625L153.008 9.94531C151.742 9.35156 150.477 8.85156 149.211 8.44531C147.945 8.03906 146.586 7.83594 145.133 7.83594ZM1.32617 53.8828C1.05664 53.8828 0.816406 53.8418 0.605469 53.7598V52.9336C0.84375 53.0195 1.07617 53.0625 1.30273 53.0625C1.79102 53.0625 2.11914 52.6621 2.28711 51.8613L3.83398 44.5781H4.80664L3.24805 51.9492C3.10742 52.6172 2.88281 53.1055 2.57422 53.4141C2.26953 53.7266 1.85352 53.8828 1.32617 53.8828ZM4.10938 42.9375C4.10938 42.7188 4.17188 42.541 4.29688 42.4043C4.42188 42.2637 4.58398 42.1934 4.7832 42.1934C5.11914 42.1934 5.28711 42.3691 5.28711 42.7207C5.28711 42.9355 5.2207 43.1172 5.08789 43.2656C4.95898 43.4141 4.80859 43.4883 4.63672 43.4883C4.48828 43.4883 4.36328 43.4414 4.26172 43.3477C4.16016 43.25 4.10938 43.1133 4.10938 42.9375ZM7.80664 44.5781L6.92773 48.6504C6.85742 48.998 6.82227 49.2695 6.82227 49.4648C6.82227 50.0234 7.10938 50.3027 7.68359 50.3027C8.02734 50.3027 8.36523 50.1855 8.69727 49.9512C9.0293 49.7168 9.32227 49.3809 9.57617 48.9434C9.83008 48.5059 10.0234 47.9785 10.1562 47.3613L10.7422 44.5781H11.7148L10.3613 51H9.54688L9.67578 49.8105H9.60547C9.22266 50.2988 8.85742 50.6387 8.50977 50.8301C8.16211 51.0215 7.80273 51.1172 7.43164 51.1172C6.93164 51.1172 6.53906 50.9824 6.25391 50.7129C5.96875 50.4395 5.82617 50.0508 5.82617 49.5469C5.82617 49.3047 5.86914 48.9688 5.95508 48.5391L6.81055 44.5781H7.80664ZM16.3965 49.1777C16.3965 49.7871 16.1797 50.2637 15.7461 50.6074C15.3164 50.9473 14.709 51.1172 13.9238 51.1172C13.2637 51.1172 12.668 50.9824 12.1367 50.7129V49.7871C12.4102 49.9512 12.7051 50.0781 13.0215 50.168C13.3379 50.2578 13.6309 50.3027 13.9004 50.3027C14.3926 50.3027 14.7637 50.2051 15.0137 50.0098C15.2637 49.8145 15.3887 49.5645 15.3887 49.2598C15.3887 49.0371 15.3203 48.8496 15.1836 48.6973C15.0469 48.5449 14.752 48.3359 14.2988 48.0703C13.791 47.7852 13.4316 47.5059 13.2207 47.2324C13.0098 46.959 12.9043 46.6348 12.9043 46.2598C12.9043 45.7207 13.1016 45.2871 13.4961 44.959C13.8906 44.627 14.4102 44.4609 15.0547 44.4609C15.7227 44.4609 16.3672 44.6055 16.9883 44.8945L16.6719 45.6973L16.3438 45.5508C15.9492 45.3828 15.5195 45.2988 15.0547 45.2988C14.6914 45.2988 14.4062 45.3848 14.1992 45.5566C13.9922 45.7246 13.8887 45.9434 13.8887 46.2129C13.8887 46.4316 13.957 46.6191 14.0938 46.7754C14.2344 46.9316 14.5215 47.1328 14.9551 47.3789C15.373 47.6133 15.6719 47.8145 15.8516 47.9824C16.0352 48.1504 16.1719 48.332 16.2617 48.5273C16.3516 48.7188 16.3965 48.9355 16.3965 49.1777ZM19.5488 50.3145C19.7637 50.3145 20.0449 50.2637 20.3926 50.1621V50.918C20.2598 50.9727 20.0957 51.0195 19.9004 51.0586C19.7051 51.0977 19.5488 51.1172 19.4316 51.1172C18.9434 51.1172 18.5684 51.002 18.3066 50.7715C18.0488 50.5371 17.9199 50.1895 17.9199 49.7285C17.9199 49.4707 17.9551 49.1777 18.0254 48.8496L18.7695 45.3223H17.7617L17.8438 44.8945L18.9277 44.4375L19.6602 43.1016H20.2344L19.9121 44.5781H21.5176L21.3652 45.3223H19.7656L19.0098 48.8613C18.9395 49.2012 18.9043 49.459 18.9043 49.6348C18.9043 49.8535 18.9609 50.0215 19.0742 50.1387C19.1875 50.2559 19.3457 50.3145 19.5488 50.3145ZM27.9863 44.4609C28.3457 44.4609 28.666 44.5586 28.9473 44.7539C29.2285 44.9453 29.4473 45.2227 29.6035 45.5859H29.668L30.0605 44.5781H30.8047L29.4395 51H28.6602L28.8125 49.7754H28.7656C28.0664 50.6699 27.3301 51.1172 26.5566 51.1172C26.0137 51.1172 25.5879 50.9238 25.2793 50.5371C24.9707 50.1504 24.8164 49.6211 24.8164 48.9492C24.8164 48.1367 24.9551 47.3828 25.2324 46.6875C25.5098 45.9922 25.8926 45.4473 26.3809 45.0527C26.8691 44.6582 27.4043 44.4609 27.9863 44.4609ZM26.873 50.3027C27.252 50.3027 27.6289 50.123 28.0039 49.7637C28.3789 49.4004 28.6836 48.9297 28.918 48.3516C29.1523 47.7695 29.2695 47.1875 29.2695 46.6055C29.2695 46.2031 29.1602 45.8828 28.9414 45.6445C28.7227 45.4062 28.4355 45.2871 28.0801 45.2871C27.6738 45.2871 27.2949 45.4551 26.9434 45.791C26.5957 46.127 26.3223 46.582 26.123 47.1562C25.9238 47.7305 25.8242 48.3359 25.8242 48.9727C25.8242 49.418 25.916 49.752 26.0996 49.9746C26.2832 50.1934 26.541 50.3027 26.873 50.3027ZM35.2988 51L36.166 46.9453C36.2441 46.5391 36.2832 46.2578 36.2832 46.1016C36.2832 45.8555 36.2129 45.6582 36.0723 45.5098C35.9355 45.3613 35.7148 45.2871 35.4102 45.2871C35.0625 45.2871 34.7227 45.4043 34.3906 45.6387C34.0625 45.873 33.7715 46.207 33.5176 46.6406C33.2676 47.0742 33.0781 47.5996 32.9492 48.2168L32.3574 51H31.373L32.7441 44.5781H33.5586L33.4297 45.7676H33.4883C33.8633 45.291 34.2246 44.9551 34.5723 44.7598C34.9238 44.5605 35.2871 44.4609 35.6621 44.4609C36.1582 44.4609 36.5488 44.5977 36.834 44.8711C37.123 45.1406 37.2676 45.5195 37.2676 46.0078C37.2676 46.3164 37.2227 46.668 37.1328 47.0625L36.2949 51H35.2988ZM41.7207 44.4961C42.4629 44.4961 43.0488 44.7168 43.4785 45.1582C43.9082 45.5957 44.123 46.1992 44.123 46.9688C44.123 47.7031 43.9824 48.3965 43.7012 49.0488C43.4199 49.7012 43.0391 50.2051 42.5586 50.5605C42.0781 50.916 41.5352 51.0938 40.9297 51.0938C40.1797 51.0938 39.5918 50.873 39.166 50.4316C38.7402 49.9902 38.5273 49.3867 38.5273 48.6211C38.5273 47.8789 38.6699 47.1816 38.9551 46.5293C39.2402 45.873 39.625 45.3711 40.1094 45.0234C40.5938 44.6719 41.1309 44.4961 41.7207 44.4961ZM43.1035 46.834C43.1035 46.3848 42.9805 46.0215 42.7344 45.7441C42.4922 45.4629 42.1621 45.3223 41.7441 45.3223C41.3184 45.3223 40.9355 45.4668 40.5957 45.7559C40.2598 46.0449 39.998 46.4473 39.8105 46.9629C39.627 47.4746 39.5352 48.0449 39.5352 48.6738C39.5352 49.1855 39.6582 49.582 39.9043 49.8633C40.1543 50.1406 40.5117 50.2793 40.9766 50.2793C41.3828 50.2793 41.748 50.1367 42.0723 49.8516C42.3965 49.5664 42.6484 49.1621 42.8281 48.6387C43.0117 48.1113 43.1035 47.5098 43.1035 46.834ZM47.0059 50.3145C47.2207 50.3145 47.502 50.2637 47.8496 50.1621V50.918C47.7168 50.9727 47.5527 51.0195 47.3574 51.0586C47.1621 51.0977 47.0059 51.1172 46.8887 51.1172C46.4004 51.1172 46.0254 51.002 45.7637 50.7715C45.5059 50.5371 45.377 50.1895 45.377 49.7285C45.377 49.4707 45.4121 49.1777 45.4824 48.8496L46.2266 45.3223H45.2188L45.3008 44.8945L46.3848 44.4375L47.1172 43.1016H47.6914L47.3691 44.5781H48.9746L48.8223 45.3223H47.2227L46.4668 48.8613C46.3965 49.2012 46.3613 49.459 46.3613 49.6348C46.3613 49.8535 46.418 50.0215 46.5312 50.1387C46.6445 50.2559 46.8027 50.3145 47.0059 50.3145ZM52.8535 51L53.7207 46.9453C53.791 46.5781 53.8262 46.3145 53.8262 46.1543C53.8262 45.5762 53.5391 45.2871 52.9648 45.2871C52.6172 45.2871 52.2773 45.4023 51.9453 45.6328C51.6172 45.8633 51.3262 46.1992 51.0723 46.6406C50.8223 47.0781 50.6328 47.6074 50.5039 48.2285L49.9121 51H48.9277L50.8613 41.8828H51.8457C51.7754 42.2031 51.707 42.5137 51.6406 42.8145C51.5781 43.1152 51.5117 43.4219 51.4414 43.7344C51.375 44.043 51.3008 44.3672 51.2188 44.707C51.1406 45.0469 51.0488 45.416 50.9434 45.8145H51.0078C51.375 45.334 51.7363 44.9902 52.0918 44.7832C52.4512 44.5762 52.8262 44.4727 53.2168 44.4727C53.7285 44.4727 54.123 44.6133 54.4004 44.8945C54.6816 45.1758 54.8223 45.5742 54.8223 46.0898C54.8223 46.332 54.7773 46.6562 54.6875 47.0625C54.5352 47.8164 54.252 49.1289 53.8379 51H52.8535ZM58.3906 51.1172C57.6719 51.1172 57.1074 50.9043 56.6973 50.4785C56.2871 50.0527 56.082 49.4629 56.082 48.709C56.082 47.9746 56.2266 47.2715 56.5156 46.5996C56.8086 45.9238 57.1953 45.3984 57.6758 45.0234C58.1562 44.6484 58.6855 44.4609 59.2637 44.4609C59.8613 44.4609 60.3105 44.5918 60.6113 44.8535C60.9121 45.1113 61.0625 45.4727 61.0625 45.9375C61.0625 46.6406 60.7383 47.1934 60.0898 47.5957C59.4414 47.9941 58.5137 48.1934 57.3066 48.1934H57.1133L57.0898 48.6621C57.0898 49.1738 57.209 49.5742 57.4473 49.8633C57.6895 50.1484 58.0625 50.291 58.5664 50.291C58.8125 50.291 59.0645 50.2559 59.3223 50.1855C59.584 50.1152 59.9082 49.9863 60.2949 49.7988V50.6543C59.9277 50.8262 59.6035 50.9453 59.3223 51.0117C59.041 51.082 58.7305 51.1172 58.3906 51.1172ZM59.2051 45.2988C58.8027 45.2988 58.4238 45.4824 58.0684 45.8496C57.7168 46.2168 57.4473 46.7266 57.2598 47.3789H57.3301C58.2207 47.3789 58.9023 47.2637 59.375 47.0332C59.8516 46.7988 60.0898 46.4609 60.0898 46.0195C60.0898 45.8125 60.0176 45.6406 59.873 45.5039C59.7324 45.3672 59.5098 45.2988 59.2051 45.2988ZM65.832 44.4609C66.1016 44.4609 66.3359 44.4883 66.5352 44.543L66.3242 45.4219C66.1172 45.3711 65.9121 45.3457 65.709 45.3457C65.3535 45.3457 65.0195 45.4629 64.707 45.6973C64.3984 45.9316 64.127 46.2578 63.8926 46.6758C63.6621 47.0898 63.4922 47.5508 63.3828 48.0586L62.7559 51H61.7715L63.1426 44.5781H63.957L63.8281 45.7676H63.8867C64.168 45.3965 64.4004 45.1309 64.584 44.9707C64.7676 44.8066 64.959 44.6816 65.1582 44.5957C65.3613 44.5059 65.5859 44.4609 65.832 44.4609ZM73.3789 51L74.2461 46.9453C74.3164 46.5781 74.3516 46.3145 74.3516 46.1543C74.3516 45.8809 74.291 45.668 74.1699 45.5156C74.0488 45.3633 73.8418 45.2871 73.5488 45.2871C73.2207 45.2871 72.9004 45.4043 72.5879 45.6387C72.2793 45.873 72.0059 46.209 71.7676 46.6465C71.5332 47.0801 71.3516 47.6035 71.2227 48.2168L70.6309 51H69.6465L71.0176 44.5781H71.832L71.7031 45.7676H71.7617C72.1016 45.3027 72.4395 44.9688 72.7754 44.7656C73.1152 44.5625 73.4648 44.4609 73.8242 44.4609C74.2656 44.4609 74.6055 44.5879 74.8438 44.8418C75.082 45.0957 75.2227 45.4492 75.2656 45.9023H75.3125C75.6484 45.4141 76.0059 45.0527 76.3848 44.8184C76.7637 44.5801 77.1465 44.4609 77.5332 44.4609C78.0293 44.4609 78.4121 44.5938 78.6816 44.8594C78.9551 45.125 79.0918 45.5117 79.0918 46.0195C79.0918 46.2852 79.0488 46.6328 78.9629 47.0625L78.1191 51H77.123L77.9902 46.9453C78.0684 46.5391 78.1074 46.2539 78.1074 46.0898C78.1074 45.8477 78.0391 45.6543 77.9023 45.5098C77.7695 45.3613 77.5586 45.2871 77.2695 45.2871C76.9531 45.2871 76.6406 45.4004 76.332 45.627C76.0234 45.8535 75.752 46.1758 75.5176 46.5938C75.2871 47.0078 75.1113 47.5 74.9902 48.0703L74.3633 51H73.3789ZM82.4082 44.5781L81.5293 48.6504C81.459 48.998 81.4238 49.2695 81.4238 49.4648C81.4238 50.0234 81.7109 50.3027 82.2852 50.3027C82.6289 50.3027 82.9668 50.1855 83.2988 49.9512C83.6309 49.7168 83.9238 49.3809 84.1777 48.9434C84.4316 48.5059 84.625 47.9785 84.7578 47.3613L85.3438 44.5781H86.3164L84.9629 51H84.1484L84.2773 49.8105H84.207C83.8242 50.2988 83.459 50.6387 83.1113 50.8301C82.7637 51.0215 82.4043 51.1172 82.0332 51.1172C81.5332 51.1172 81.1406 50.9824 80.8555 50.7129C80.5703 50.4395 80.4277 50.0508 80.4277 49.5469C80.4277 49.3047 80.4707 48.9688 80.5566 48.5391L81.4121 44.5781H82.4082ZM90.998 49.1777C90.998 49.7871 90.7812 50.2637 90.3477 50.6074C89.918 50.9473 89.3105 51.1172 88.5254 51.1172C87.8652 51.1172 87.2695 50.9824 86.7383 50.7129V49.7871C87.0117 49.9512 87.3066 50.0781 87.623 50.168C87.9395 50.2578 88.2324 50.3027 88.502 50.3027C88.9941 50.3027 89.3652 50.2051 89.6152 50.0098C89.8652 49.8145 89.9902 49.5645 89.9902 49.2598C89.9902 49.0371 89.9219 48.8496 89.7852 48.6973C89.6484 48.5449 89.3535 48.3359 88.9004 48.0703C88.3926 47.7852 88.0332 47.5059 87.8223 47.2324C87.6113 46.959 87.5059 46.6348 87.5059 46.2598C87.5059 45.7207 87.7031 45.2871 88.0977 44.959C88.4922 44.627 89.0117 44.4609 89.6562 44.4609C90.3242 44.4609 90.9688 44.6055 91.5898 44.8945L91.2734 45.6973L90.9453 45.5508C90.5508 45.3828 90.1211 45.2988 89.6562 45.2988C89.293 45.2988 89.0078 45.3848 88.8008 45.5566C88.5938 45.7246 88.4902 45.9434 88.4902 46.2129C88.4902 46.4316 88.5586 46.6191 88.6953 46.7754C88.8359 46.9316 89.123 47.1328 89.5566 47.3789C89.9746 47.6133 90.2734 47.8145 90.4531 47.9824C90.6367 48.1504 90.7734 48.332 90.8633 48.5273C90.9531 48.7188 90.998 48.9355 90.998 49.1777ZM93.166 51H92.1816L93.5527 44.5781H94.5371L93.166 51ZM93.8281 42.9375C93.8281 42.7188 93.8906 42.541 94.0156 42.4043C94.1406 42.2637 94.3027 42.1934 94.502 42.1934C94.8457 42.1934 95.0176 42.3691 95.0176 42.7207C95.0176 42.9355 94.9512 43.1172 94.8184 43.2656C94.6895 43.4141 94.5391 43.4883 94.3672 43.4883C94.2109 43.4883 94.082 43.4414 93.9805 43.3477C93.8789 43.25 93.8281 43.1133 93.8281 42.9375ZM97.8477 51.1172C97.0898 51.1172 96.502 50.9082 96.084 50.4902C95.666 50.0723 95.457 49.4824 95.457 48.7207C95.457 47.9395 95.6016 47.2188 95.8906 46.5586C96.1797 45.8984 96.5781 45.3848 97.0859 45.0176C97.5977 44.6465 98.1719 44.4609 98.8086 44.4609C99.3438 44.4609 99.8672 44.5605 100.379 44.7598L100.104 45.5859C99.6348 45.3867 99.207 45.2871 98.8203 45.2871C98.3828 45.2871 97.9824 45.4375 97.6191 45.7383C97.2598 46.0352 96.9766 46.4512 96.7695 46.9863C96.5664 47.5176 96.4648 48.0957 96.4648 48.7207C96.4648 49.2207 96.5938 49.6094 96.8516 49.8867C97.1133 50.1641 97.4727 50.3027 97.9297 50.3027C98.2109 50.3027 98.4766 50.2637 98.7266 50.1855C98.9766 50.1074 99.2227 50.0156 99.4648 49.9102V50.748C98.9805 50.9941 98.4414 51.1172 97.8477 51.1172ZM106.596 51.1172C106.217 51.1172 105.885 51.0195 105.6 50.8242C105.314 50.6289 105.094 50.3555 104.938 50.0039H104.879L104.855 50.2266C104.844 50.3242 104.822 50.4609 104.791 50.6367C104.764 50.8125 104.541 51.8945 104.123 53.8828H103.15L105.119 44.5781H105.934L105.781 45.8027H105.828C106.527 44.916 107.254 44.4727 108.008 44.4727C108.543 44.4727 108.965 44.6641 109.273 45.0469C109.582 45.4258 109.736 45.959 109.736 46.6465C109.736 47.4746 109.602 48.2344 109.332 48.9258C109.062 49.6172 108.689 50.1562 108.213 50.543C107.736 50.9258 107.197 51.1172 106.596 51.1172ZM107.686 45.2871C107.311 45.2871 106.928 45.4727 106.537 45.8438C106.15 46.2148 105.842 46.6816 105.611 47.2441C105.385 47.8066 105.271 48.3828 105.271 48.9727C105.271 49.4023 105.379 49.7324 105.594 49.9629C105.812 50.1895 106.127 50.3027 106.537 50.3027C106.924 50.3027 107.283 50.1445 107.615 49.8281C107.951 49.5117 108.221 49.0625 108.424 48.4805C108.627 47.8945 108.729 47.2734 108.729 46.6172C108.729 45.7305 108.381 45.2871 107.686 45.2871ZM111.646 51H110.662L112.607 41.8828H113.592L111.646 51ZM117.119 44.4609C117.479 44.4609 117.799 44.5586 118.08 44.7539C118.361 44.9453 118.58 45.2227 118.736 45.5859H118.801L119.193 44.5781H119.938L118.572 51H117.793L117.945 49.7754H117.898C117.199 50.6699 116.463 51.1172 115.689 51.1172C115.146 51.1172 114.721 50.9238 114.412 50.5371C114.104 50.1504 113.949 49.6211 113.949 48.9492C113.949 48.1367 114.088 47.3828 114.365 46.6875C114.643 45.9922 115.025 45.4473 115.514 45.0527C116.002 44.6582 116.537 44.4609 117.119 44.4609ZM116.006 50.3027C116.385 50.3027 116.762 50.123 117.137 49.7637C117.512 49.4004 117.816 48.9297 118.051 48.3516C118.285 47.7695 118.402 47.1875 118.402 46.6055C118.402 46.2031 118.293 45.8828 118.074 45.6445C117.855 45.4062 117.568 45.2871 117.213 45.2871C116.807 45.2871 116.428 45.4551 116.076 45.791C115.729 46.127 115.455 46.582 115.256 47.1562C115.057 47.7305 114.957 48.3359 114.957 48.9727C114.957 49.418 115.049 49.752 115.232 49.9746C115.416 50.1934 115.674 50.3027 116.006 50.3027ZM120.734 44.5781H121.719L122.152 47.7715C122.191 48.041 122.229 48.4395 122.264 48.9668C122.303 49.4902 122.322 49.9121 122.322 50.2324H122.357C122.494 49.8926 122.664 49.502 122.867 49.0605C123.07 48.6191 123.221 48.3145 123.318 48.1465L125.223 44.5781H126.266L122.188 52.0898C121.824 52.7617 121.465 53.2285 121.109 53.4902C120.754 53.752 120.326 53.8828 119.826 53.8828C119.545 53.8828 119.271 53.8418 119.006 53.7598V52.9688C119.252 53.0391 119.508 53.0742 119.773 53.0742C120.094 53.0742 120.367 52.9746 120.594 52.7754C120.824 52.5801 121.047 52.2891 121.262 51.9023L121.707 51.1055L120.734 44.5781ZM128.586 51.1172C127.867 51.1172 127.303 50.9043 126.893 50.4785C126.482 50.0527 126.277 49.4629 126.277 48.709C126.277 47.9746 126.422 47.2715 126.711 46.5996C127.004 45.9238 127.391 45.3984 127.871 45.0234C128.352 44.6484 128.881 44.4609 129.459 44.4609C130.057 44.4609 130.506 44.5918 130.807 44.8535C131.107 45.1113 131.258 45.4727 131.258 45.9375C131.258 46.6406 130.934 47.1934 130.285 47.5957C129.637 47.9941 128.709 48.1934 127.502 48.1934H127.309L127.285 48.6621C127.285 49.1738 127.404 49.5742 127.643 49.8633C127.885 50.1484 128.258 50.291 128.762 50.291C129.008 50.291 129.26 50.2559 129.518 50.1855C129.779 50.1152 130.104 49.9863 130.49 49.7988V50.6543C130.123 50.8262 129.799 50.9453 129.518 51.0117C129.236 51.082 128.926 51.1172 128.586 51.1172ZM129.4 45.2988C128.998 45.2988 128.619 45.4824 128.264 45.8496C127.912 46.2168 127.643 46.7266 127.455 47.3789H127.525C128.416 47.3789 129.098 47.2637 129.57 47.0332C130.047 46.7988 130.285 46.4609 130.285 46.0195C130.285 45.8125 130.213 45.6406 130.068 45.5039C129.928 45.3672 129.705 45.2988 129.4 45.2988ZM136.027 44.4609C136.297 44.4609 136.531 44.4883 136.73 44.543L136.52 45.4219C136.312 45.3711 136.107 45.3457 135.904 45.3457C135.549 45.3457 135.215 45.4629 134.902 45.6973C134.594 45.9316 134.322 46.2578 134.088 46.6758C133.857 47.0898 133.688 47.5508 133.578 48.0586L132.951 51H131.967L133.338 44.5781H134.152L134.023 45.7676H134.082C134.363 45.3965 134.596 45.1309 134.779 44.9707C134.963 44.8066 135.154 44.6816 135.354 44.5957C135.557 44.5059 135.781 44.4609 136.027 44.4609ZM142.52 47.1855H140.24V46.3535H142.52V44.0625H143.346V46.3535H145.631V47.1855H143.346V49.4531H142.52V47.1855ZM149.129 47.1855H146.85V46.3535H149.129V44.0625H149.955V46.3535H152.24V47.1855H149.955V49.4531H149.129V47.1855Z" fill="white"/>
<path d="M162.289 14.4453C161.008 12.5859 160.367 9.9375 160.367 6.5V3.10156H169.602L187.039 22.2031C188.023 23.2969 188.68 24.2188 189.008 24.9688C189.336 25.7188 189.578 26.4062 189.734 27.0312C190.078 28.2812 190.25 29.8203 190.25 31.6484V35H181.273L162.359 14.4453H162.289ZM180.102 13.1094C180.102 8.8125 180.766 6.01562 182.094 4.71875C182.797 4.03125 183.711 3.59375 184.836 3.40625C185.977 3.20312 187.359 3.10156 188.984 3.10156H190.25V6.80469C190.25 10.1328 189.375 12.3594 187.625 13.4844C186.375 14.2969 184.273 14.7031 181.32 14.7031H180.102V13.1094ZM160.367 31.3438C160.367 28.0156 161.242 25.7812 162.992 24.6406C164.242 23.8438 166.344 23.4453 169.297 23.4453H170.516V25.0391C170.516 29.3828 169.852 32.1719 168.523 33.4062C167.617 34.25 166.297 34.75 164.562 34.9062C163.688 34.9688 162.711 35 161.633 35H160.367V31.3438Z" fill="#4AD168"/>
</svg>
